M48
;Layer_Color=9474304
;FILE_FORMAT=2:5
INCH,TZ
;TYPE=PLATED
T1F00S00C0.03937
T2F00S00C0.04016
T3F00S00C0.11811
%
T01
X101186Y131705
X109139Y133673
X101186Y143516
X137800Y122650
X137800Y122650
X137800Y122650
Y106902
X125989
X162603Y131705
X159375Y141547
X249296Y141543
X246068Y131700
X270871Y122645
X270871Y122645
X270871Y122645
Y106897
X282682
X299532Y133668
X307485Y131700
Y143511
X282682Y168314
X270871
X262013Y164613
X262019Y245876
X270877Y242176
X282688
X307491Y266979
Y278790
X299538Y276821
X270877Y287845
X270877Y287845
X270877Y287845
X270877Y303593
X282688
X246074Y278790
X249302Y268947
X159381Y268952
X162609Y278795
X137806Y287850
Y287850
X137806Y287850
Y303598
X125995
X109145Y276826
X101192Y278795
Y266984
X125995Y242180
X137806
X146664Y245881
X146658Y164618
X137800Y168319
X125989
T02
X179658Y114654
X189658
Y124654
X179658
Y134654
X189658
Y144654
Y154654
X179658
Y144654
X219028
Y154654
X229028
Y144654
Y134654
Y124654
Y114654
X219028
Y124654
Y134654
Y255842
Y265842
X229028
Y275842
X219028
Y285842
X229028
Y295842
X219028
X189658
X179658
Y285842
X189658
Y275842
X179658
Y265842
Y255842
X189658
Y265842
X229028Y255842
T03
X129531Y89656
Y89656
X184649Y89654
X184649Y89654
X224019Y89653
X224019Y89653
X279137Y89651
X279137Y89651
X279141Y185559
X279141Y185560
X279142Y224930
X279142Y224930
X224024Y224932
X224024Y224932
X184654Y224933
X184654Y224933
X184653Y185563
X184653Y185563
X224023Y185562
X224023Y185562
X129535Y185565
X129534
X129536Y224935
X129536Y224935
X129540Y320844
X129540Y320844
X184658Y320842
X184658Y320842
X224028Y320840
X224028Y320840
X279146Y320838
Y320838
M30
