G04*
G04 #@! TF.GenerationSoftware,Altium Limited,Altium Designer,18.1.11 (251)*
G04*
G04 Layer_Color=32896*
%FSLAX25Y25*%
%MOIN*%
G70*
G01*
G75*
%ADD10C,0.00787*%
%ADD11C,0.00394*%
%ADD12C,0.01000*%
%ADD13C,0.00600*%
D10*
X174658Y301826D02*
X194658D01*
Y249858D02*
Y301826D01*
X174658Y249858D02*
X194658D01*
X174658D02*
Y301826D01*
X214028Y108670D02*
X234028D01*
X214028D02*
Y160639D01*
X234028D01*
Y108670D02*
Y160639D01*
D11*
X274808Y171070D02*
X278745D01*
X274808Y104141D02*
X278745D01*
X253154Y171070D02*
X266934D01*
X243312Y161228D02*
X253154Y171070D01*
X243312Y135637D02*
Y161228D01*
Y113983D02*
Y127763D01*
Y113983D02*
X253154Y104141D01*
X266934D01*
X286619Y171070D02*
X300398D01*
X310241Y161228D01*
Y147448D02*
Y161228D01*
Y113983D02*
Y127763D01*
X300398Y104141D02*
X310241Y113983D01*
X286619Y104141D02*
X300398D01*
X129932Y239425D02*
X133869D01*
X129932Y306354D02*
X133869D01*
X141743Y239425D02*
X155523D01*
X165365Y249267D01*
Y274858D01*
Y282732D02*
Y296511D01*
X155523Y306354D02*
X165365Y296511D01*
X141743Y306354D02*
X155523D01*
X108278Y239425D02*
X122058D01*
X98436Y249267D02*
X108278Y239425D01*
X98436Y249267D02*
Y263047D01*
Y282732D02*
Y296511D01*
X108278Y306354D01*
X122058D01*
D12*
X253470Y321334D02*
X257469D01*
Y323334D01*
X256802Y324000D01*
X255469D01*
X254803Y323334D01*
Y321334D01*
Y319335D02*
Y318002D01*
X255469Y317336D01*
X257469D01*
Y319335D01*
X256802Y320001D01*
X256136Y319335D01*
Y317336D01*
X254803Y316003D02*
X256802D01*
X257469Y315336D01*
Y313337D01*
X254803D01*
X258802Y310671D02*
Y310004D01*
X258135Y309338D01*
X254803D01*
Y311337D01*
X255469Y312004D01*
X256802D01*
X257469Y311337D01*
Y309338D01*
X253470Y308005D02*
X257469D01*
X255469D01*
X254803Y307339D01*
Y306006D01*
X255469Y305339D01*
X257469D01*
X254136Y303340D02*
X254803D01*
Y304006D01*
Y302674D01*
Y303340D01*
X256802D01*
X257469Y302674D01*
Y298675D02*
Y300008D01*
X256802Y300674D01*
X255469D01*
X254803Y300008D01*
Y298675D01*
X255469Y298008D01*
X256136D01*
Y300674D01*
X254803Y296675D02*
X257469D01*
X256136D01*
X255469Y296009D01*
X254803Y295343D01*
Y294676D01*
X253470Y292677D02*
X257469D01*
Y290677D01*
X256802Y290011D01*
X256136D01*
X255469D01*
X254803Y290677D01*
Y292677D01*
X257469Y288012D02*
Y286679D01*
X256802Y286012D01*
X255469D01*
X254803Y286679D01*
Y288012D01*
X255469Y288678D01*
X256802D01*
X257469Y288012D01*
X254803Y284013D02*
Y282680D01*
X255469Y282014D01*
X257469D01*
Y284013D01*
X256802Y284679D01*
X256136Y284013D01*
Y282014D01*
X254803Y280681D02*
X257469D01*
X256136D01*
X255469Y280014D01*
X254803Y279348D01*
Y278681D01*
X253470Y274016D02*
X257469D01*
Y276015D01*
X256802Y276682D01*
X255469D01*
X254803Y276015D01*
Y274016D01*
X253470Y270017D02*
Y272683D01*
X255469D01*
Y271350D01*
Y272683D01*
X257469D01*
X254803Y268685D02*
X256802D01*
X257469Y268018D01*
Y266019D01*
X254803D01*
X257469Y264686D02*
X254803D01*
Y262686D01*
X255469Y262020D01*
X257469D01*
Y260687D02*
X253470D01*
X256136D02*
X254803Y258688D01*
X256136Y260687D02*
X257469Y258688D01*
X254803Y256688D02*
X256802D01*
X257469Y256022D01*
Y254023D01*
X258135D01*
X258802Y254689D01*
Y255356D01*
X257469Y254023D02*
X254803D01*
X254136Y250024D02*
X253470Y250690D01*
Y252023D01*
X254136Y252690D01*
X254803D01*
X255469Y252023D01*
Y250690D01*
X256136Y250024D01*
X256802D01*
X257469Y250690D01*
Y252023D01*
X256802Y252690D01*
X254803Y248691D02*
X256802D01*
X257469Y248025D01*
X256802Y247358D01*
X257469Y246692D01*
X256802Y246025D01*
X254803D01*
X257469Y244692D02*
Y243359D01*
Y244026D01*
X254803D01*
Y244692D01*
X254136Y240693D02*
X254803D01*
Y241360D01*
Y240027D01*
Y240693D01*
X256802D01*
X257469Y240027D01*
X254803Y235362D02*
Y237361D01*
X255469Y238028D01*
X256802D01*
X257469Y237361D01*
Y235362D01*
X253470Y234029D02*
X257469D01*
X255469D01*
X254803Y233363D01*
Y232030D01*
X255469Y231363D01*
X257469D01*
X263334Y312004D02*
X266000Y310671D01*
X263334Y309338D01*
X266000Y308005D02*
Y306672D01*
Y307339D01*
X262001D01*
X262668Y308005D01*
X266000Y304673D02*
X265334D01*
Y304006D01*
X266000D01*
Y304673D01*
X262668Y301341D02*
X262001Y300674D01*
Y299341D01*
X262668Y298675D01*
X265334D01*
X266000Y299341D01*
Y300674D01*
X265334Y301341D01*
X262668D01*
X262001Y290677D02*
Y293343D01*
X266000D01*
Y290677D01*
X264001Y293343D02*
Y292010D01*
X263334Y289345D02*
X266000D01*
X264667D01*
X264001Y288678D01*
X263334Y288012D01*
Y287345D01*
X266000Y285346D02*
Y284013D01*
Y284679D01*
X263334D01*
Y285346D01*
Y279348D02*
Y281347D01*
X264001Y282014D01*
X265334D01*
X266000Y281347D01*
Y279348D01*
X262668Y271350D02*
X262001Y272017D01*
Y273350D01*
X262668Y274016D01*
X265334D01*
X266000Y273350D01*
Y272017D01*
X265334Y271350D01*
X264001D01*
Y272683D01*
X266000Y269351D02*
Y268018D01*
X265334Y267352D01*
X264001D01*
X263334Y268018D01*
Y269351D01*
X264001Y270017D01*
X265334D01*
X266000Y269351D01*
X263334Y266019D02*
X266000D01*
X264667D01*
X264001Y265352D01*
X263334Y264686D01*
Y264019D01*
X266000Y262020D02*
X262001D01*
X264667D02*
X263334Y260021D01*
X264667Y262020D02*
X266000Y260021D01*
Y257355D02*
Y256022D01*
X265334Y255356D01*
X264001D01*
X263334Y256022D01*
Y257355D01*
X264001Y258021D01*
X265334D01*
X266000Y257355D01*
X263334Y254023D02*
X265334D01*
X266000Y253356D01*
X265334Y252690D01*
X266000Y252023D01*
X265334Y251357D01*
X263334D01*
X155530Y87666D02*
X151531D01*
Y85666D01*
X152198Y85000D01*
X153531D01*
X154197Y85666D01*
Y87666D01*
Y89665D02*
Y90998D01*
X153531Y91664D01*
X151531D01*
Y89665D01*
X152198Y88999D01*
X152864Y89665D01*
Y91664D01*
X154197Y92997D02*
X152198D01*
X151531Y93664D01*
Y95663D01*
X154197D01*
X150198Y98329D02*
Y98996D01*
X150865Y99662D01*
X154197D01*
Y97663D01*
X153531Y96996D01*
X152198D01*
X151531Y97663D01*
Y99662D01*
X155530Y100995D02*
X151531D01*
X153531D01*
X154197Y101661D01*
Y102994D01*
X153531Y103661D01*
X151531D01*
X154864Y105660D02*
X154197D01*
Y104994D01*
Y106326D01*
Y105660D01*
X152198D01*
X151531Y106326D01*
Y110325D02*
Y108992D01*
X152198Y108326D01*
X153531D01*
X154197Y108992D01*
Y110325D01*
X153531Y110992D01*
X152864D01*
Y108326D01*
X154197Y112325D02*
X151531D01*
X152864D01*
X153531Y112991D01*
X154197Y113657D01*
Y114324D01*
X155530Y116323D02*
X151531D01*
Y118323D01*
X152198Y118989D01*
X152864D01*
X153531D01*
X154197Y118323D01*
Y116323D01*
X151531Y120988D02*
Y122321D01*
X152198Y122988D01*
X153531D01*
X154197Y122321D01*
Y120988D01*
X153531Y120322D01*
X152198D01*
X151531Y120988D01*
X154197Y124987D02*
Y126320D01*
X153531Y126986D01*
X151531D01*
Y124987D01*
X152198Y124321D01*
X152864Y124987D01*
Y126986D01*
X154197Y128319D02*
X151531D01*
X152864D01*
X153531Y128986D01*
X154197Y129652D01*
Y130319D01*
X155530Y134984D02*
X151531D01*
Y132984D01*
X152198Y132318D01*
X153531D01*
X154197Y132984D01*
Y134984D01*
X155530Y138983D02*
Y136317D01*
X153531D01*
Y137650D01*
Y136317D01*
X151531D01*
X154197Y140315D02*
X152198D01*
X151531Y140982D01*
Y142981D01*
X154197D01*
X151531Y144314D02*
X154197D01*
Y146314D01*
X153531Y146980D01*
X151531D01*
Y148313D02*
X155530D01*
X152864D02*
X154197Y150312D01*
X152864Y148313D02*
X151531Y150312D01*
X154197Y152312D02*
X152198D01*
X151531Y152978D01*
Y154977D01*
X150865D01*
X150198Y154311D01*
Y153645D01*
X151531Y154977D02*
X154197D01*
X154864Y158976D02*
X155530Y158310D01*
Y156977D01*
X154864Y156310D01*
X154197D01*
X153531Y156977D01*
Y158310D01*
X152864Y158976D01*
X152198D01*
X151531Y158310D01*
Y156977D01*
X152198Y156310D01*
X154197Y160309D02*
X152198D01*
X151531Y160976D01*
X152198Y161642D01*
X151531Y162308D01*
X152198Y162975D01*
X154197D01*
X151531Y164308D02*
Y165641D01*
Y164974D01*
X154197D01*
Y164308D01*
X154864Y168307D02*
X154197D01*
Y167640D01*
Y168973D01*
Y168307D01*
X152198D01*
X151531Y168973D01*
X154197Y173638D02*
Y171639D01*
X153531Y170972D01*
X152198D01*
X151531Y171639D01*
Y173638D01*
X155530Y174971D02*
X151531D01*
X153531D01*
X154197Y175637D01*
Y176970D01*
X153531Y177637D01*
X151531D01*
X145666Y96996D02*
X143000Y98329D01*
X145666Y99662D01*
X143000Y100995D02*
Y102328D01*
Y101661D01*
X146999D01*
X146332Y100995D01*
X143000Y104327D02*
X143667D01*
Y104994D01*
X143000D01*
Y104327D01*
X146332Y107659D02*
X146999Y108326D01*
Y109659D01*
X146332Y110325D01*
X143667D01*
X143000Y109659D01*
Y108326D01*
X143667Y107659D01*
X146332D01*
X146999Y118323D02*
Y115657D01*
X143000D01*
Y118323D01*
X144999Y115657D02*
Y116990D01*
X145666Y119656D02*
X143000D01*
X144333D01*
X144999Y120322D01*
X145666Y120988D01*
Y121655D01*
X143000Y123654D02*
Y124987D01*
Y124321D01*
X145666D01*
Y123654D01*
Y129652D02*
Y127653D01*
X144999Y126987D01*
X143667D01*
X143000Y127653D01*
Y129652D01*
X146332Y137650D02*
X146999Y136983D01*
Y135650D01*
X146332Y134984D01*
X143667D01*
X143000Y135650D01*
Y136983D01*
X143667Y137650D01*
X144999D01*
Y136317D01*
X143000Y139649D02*
Y140982D01*
X143667Y141648D01*
X144999D01*
X145666Y140982D01*
Y139649D01*
X144999Y138983D01*
X143667D01*
X143000Y139649D01*
X145666Y142981D02*
X143000D01*
X144333D01*
X144999Y143648D01*
X145666Y144314D01*
Y144981D01*
X143000Y146980D02*
X146999D01*
X144333D02*
X145666Y148979D01*
X144333Y146980D02*
X143000Y148979D01*
Y151645D02*
Y152978D01*
X143667Y153645D01*
X144999D01*
X145666Y152978D01*
Y151645D01*
X144999Y150979D01*
X143667D01*
X143000Y151645D01*
X145666Y154977D02*
X143667D01*
X143000Y155644D01*
X143667Y156310D01*
X143000Y156977D01*
X143667Y157643D01*
X145666D01*
D13*
X191078Y248243D02*
X191744Y247577D01*
Y246244D01*
X191078Y245578D01*
X188412D01*
X187745Y246244D01*
Y247577D01*
X188412Y248243D01*
X189078D01*
X189745Y247577D01*
Y245578D01*
X181508Y248243D02*
Y246911D01*
Y247577D01*
X177509D01*
X178176Y248243D01*
Y244911D02*
X177509Y244245D01*
Y242912D01*
X178176Y242245D01*
X180842D01*
X181508Y242912D01*
Y244245D01*
X180842Y244911D01*
X178176D01*
X191744Y305409D02*
Y304076D01*
Y304742D01*
X187745D01*
X188412Y305409D01*
X181508Y303530D02*
Y306196D01*
X178842Y303530D01*
X178176D01*
X177509Y304197D01*
Y305530D01*
X178176Y306196D01*
X217607Y162253D02*
X216941Y162919D01*
Y164252D01*
X217607Y164918D01*
X220273D01*
X220940Y164252D01*
Y162919D01*
X220273Y162253D01*
X219607D01*
X218940Y162919D01*
Y164918D01*
X227177Y162253D02*
Y163586D01*
Y162919D01*
X231176D01*
X230510Y162253D01*
Y165585D02*
X231176Y166251D01*
Y167584D01*
X230510Y168251D01*
X227844D01*
X227177Y167584D01*
Y166251D01*
X227844Y165585D01*
X230510D01*
X216941Y105087D02*
Y106420D01*
Y105754D01*
X220940D01*
X220273Y105087D01*
X227177Y106966D02*
Y104300D01*
X229843Y106966D01*
X230510D01*
X231176Y106299D01*
Y104966D01*
X230510Y104300D01*
M02*
