G04*
G04 #@! TF.GenerationSoftware,Altium Limited,Altium Designer,18.1.11 (251)*
G04*
G04 Layer_Color=16711935*
%FSLAX25Y25*%
%MOIN*%
G70*
G01*
G75*
%ADD10C,0.00787*%
D10*
X234028Y249858D02*
Y301826D01*
X214028Y249858D02*
X234028D01*
X214028D02*
Y301826D01*
X234028D01*
X174658D02*
X194658D01*
Y249858D02*
Y301826D01*
X174658Y249858D02*
X194658D01*
X174658D02*
Y301826D01*
X214028Y108670D02*
X234028D01*
X214028D02*
Y160639D01*
X234028D01*
Y108670D02*
Y160639D01*
X310241Y113983D02*
Y161228D01*
X253154Y171070D02*
X300398D01*
X243312Y113983D02*
Y161228D01*
X253154Y104141D02*
X300398D01*
Y171070D02*
X310241Y161228D01*
X243312Y113983D02*
X253154Y104141D01*
X300398D02*
X310241Y113983D01*
X243312Y161228D02*
X253154Y171070D01*
X98436Y249267D02*
Y296511D01*
X108278Y239425D02*
X155523D01*
X165365Y249267D02*
Y296511D01*
X108278Y306354D02*
X155523D01*
X98436Y249267D02*
X108278Y239425D01*
X155523Y306354D02*
X165365Y296511D01*
X98436D02*
X108278Y306354D01*
X155523Y239425D02*
X165365Y249267D01*
X310247Y249262D02*
Y296506D01*
X253160Y239420D02*
X300404D01*
X243318Y249262D02*
Y296506D01*
X253160Y306349D02*
X300404D01*
Y239420D02*
X310247Y249262D01*
X243318Y296506D02*
X253160Y306349D01*
X300404D02*
X310247Y296506D01*
X243318Y249262D02*
X253160Y239420D01*
X98430Y113988D02*
Y161232D01*
X108272Y171075D02*
X155516D01*
X165359Y113988D02*
Y161232D01*
X108272Y104146D02*
X155516D01*
X98430Y161232D02*
X108272Y171075D01*
X155516Y104146D02*
X165359Y113988D01*
X98430D02*
X108272Y104146D01*
X155516Y171075D02*
X165359Y161232D01*
X174658Y108670D02*
X194658D01*
Y160639D01*
X174658D02*
X194658D01*
X174658Y108670D02*
Y160639D01*
M02*
