G04*
G04 #@! TF.GenerationSoftware,Altium Limited,Altium Designer,18.1.11 (251)*
G04*
G04 Layer_Physical_Order=1*
G04 Layer_Color=255*
%FSLAX25Y25*%
%MOIN*%
G70*
G01*
G75*
%ADD12C,0.01000*%
%ADD18C,0.03937*%
%ADD19C,0.11811*%
%ADD20C,0.05906*%
%ADD21R,0.05906X0.05906*%
G36*
X184658Y332653D02*
X186962Y332426D01*
X189178Y331753D01*
X191220Y330662D01*
X193010Y329193D01*
X194478Y327403D01*
X195570Y325361D01*
X196242Y323146D01*
X196469Y320841D01*
X196641Y319204D01*
X197149Y317639D01*
X197972Y316213D01*
X199074Y314990D01*
X200405Y314022D01*
X201909Y313352D01*
X203519Y313010D01*
X205165Y313010D01*
X206776Y313352D01*
X208279Y314022D01*
X209611Y314989D01*
X210713Y316213D01*
X211536Y317638D01*
X212045Y319204D01*
X212217Y320841D01*
X212444Y323145D01*
X213116Y325361D01*
X214207Y327402D01*
X215676Y329192D01*
X217466Y330661D01*
X219508Y331752D01*
X221724Y332424D01*
X224028Y332651D01*
X279146Y332649D01*
X281450Y332422D01*
X283666Y331750D01*
X285708Y330659D01*
X287498Y329190D01*
X288966Y327400D01*
X290058Y325358D01*
X290730Y323142D01*
X290957Y320838D01*
X291173Y316987D01*
X291819Y313185D01*
X292886Y309479D01*
X294362Y305917D01*
X296227Y302541D01*
X298459Y299396D01*
X301028Y296520D01*
X309150Y288398D01*
X310619Y286608D01*
X311710Y284566D01*
X312382Y282351D01*
X312609Y280047D01*
X312608Y265719D01*
X312381Y263415D01*
X311709Y261199D01*
X310618Y259157D01*
X309149Y257367D01*
X301027Y249246D01*
X298457Y246371D01*
X296225Y243226D01*
X294359Y239850D01*
X292884Y236287D01*
X291816Y232582D01*
X291170Y228780D01*
X290953Y224929D01*
X290726Y222625D01*
X290054Y220409D01*
X288963Y218367D01*
X287494Y216578D01*
X285704Y215109D01*
X283662Y214018D01*
X281446Y213345D01*
X279142Y213119D01*
X267331Y213119D01*
X265694Y212947D01*
X264128Y212438D01*
X262702Y211615D01*
X261479Y210514D01*
X260512Y209182D01*
X259842Y207679D01*
X259500Y206068D01*
X259500Y204422D01*
X259842Y202812D01*
X260511Y201308D01*
X261479Y199977D01*
X262702Y198875D01*
X264128Y198052D01*
X265693Y197543D01*
X267330Y197371D01*
X279141Y197371D01*
X281446Y197143D01*
X283661Y196471D01*
X285703Y195380D01*
X287493Y193911D01*
X288962Y192121D01*
X290053Y190079D01*
X290725Y187863D01*
X290952Y185559D01*
X291168Y181709D01*
X291814Y177907D01*
X292881Y174201D01*
X294357Y170638D01*
X296222Y167262D01*
X298454Y164117D01*
X301024Y161241D01*
X309145Y153120D01*
X310614Y151330D01*
X311705Y149288D01*
X312377Y147072D01*
X312604Y144768D01*
X312603Y130440D01*
X312376Y128136D01*
X311704Y125920D01*
X310613Y123878D01*
X309144Y122089D01*
X301022Y113967D01*
X298452Y111092D01*
X296220Y107947D01*
X294355Y104571D01*
X292879Y101009D01*
X291811Y97303D01*
X291165Y93501D01*
X290948Y89650D01*
X290721Y87346D01*
X290049Y85131D01*
X288958Y83089D01*
X287489Y81299D01*
X285699Y79830D01*
X283657Y78739D01*
X281441Y78067D01*
X279137Y77840D01*
X224019Y77842D01*
X221714Y78069D01*
X219499Y78741D01*
X217457Y79833D01*
X215667Y81301D01*
X214198Y83091D01*
X213107Y85133D01*
X212435Y87349D01*
X212208Y89653D01*
X212036Y91290D01*
X211527Y92856D01*
X210704Y94282D01*
X209603Y95505D01*
X208271Y96473D01*
X206768Y97142D01*
X205157Y97484D01*
X203511Y97484D01*
X201901Y97142D01*
X200397Y96473D01*
X199066Y95505D01*
X197964Y94282D01*
X197141Y92857D01*
X196632Y91291D01*
X196460Y89654D01*
X196233Y87350D01*
X195561Y85134D01*
X194469Y83092D01*
X193000Y81302D01*
X191211Y79834D01*
X189169Y78742D01*
X186953Y78070D01*
X184649Y77843D01*
X129531Y77845D01*
X127226Y78072D01*
X125011Y78745D01*
X122969Y79836D01*
X121179Y81305D01*
X119710Y83095D01*
X118619Y85137D01*
X117947Y87353D01*
X117720Y89657D01*
X117504Y93507D01*
X116858Y97309D01*
X115790Y101015D01*
X114315Y104578D01*
X112450Y107954D01*
X110218Y111099D01*
X107648Y113974D01*
X99527Y122096D01*
X98058Y123886D01*
X96967Y125928D01*
X96295Y128144D01*
X96068Y130448D01*
X96068Y144776D01*
X96295Y147080D01*
X96968Y149295D01*
X98059Y151337D01*
X99528Y153127D01*
X107650Y161249D01*
X110220Y164124D01*
X112452Y167269D01*
X114317Y170644D01*
X115793Y174207D01*
X116861Y177913D01*
X117507Y181715D01*
X117724Y185565D01*
X117950Y187870D01*
X118623Y190085D01*
X119714Y192127D01*
X121183Y193917D01*
X122973Y195386D01*
X125015Y196477D01*
X127231Y197149D01*
X129535Y197376D01*
X141346Y197376D01*
X142983Y197548D01*
X144549Y198056D01*
X145974Y198879D01*
X147198Y199981D01*
X148165Y201312D01*
X148835Y202816D01*
X149177Y204426D01*
X149177Y206072D01*
X148835Y207682D01*
X148166Y209186D01*
X147198Y210518D01*
X145975Y211620D01*
X144549Y212443D01*
X142984Y212951D01*
X141347Y213124D01*
X129535Y213124D01*
X127231Y213351D01*
X125016Y214023D01*
X122974Y215115D01*
X121184Y216584D01*
X119715Y218374D01*
X118624Y220416D01*
X117952Y222631D01*
X117725Y224936D01*
X117509Y228786D01*
X116863Y232588D01*
X115796Y236294D01*
X114320Y239857D01*
X112454Y243232D01*
X110223Y246377D01*
X107653Y249253D01*
X99532Y257375D01*
X98063Y259165D01*
X96972Y261207D01*
X96300Y263423D01*
X96073Y265727D01*
X96073Y280054D01*
X96301Y282359D01*
X96973Y284574D01*
X98064Y286616D01*
X99533Y288406D01*
X107655Y296527D01*
X110225Y299403D01*
X112457Y302548D01*
X114322Y305923D01*
X115798Y309486D01*
X116866Y313192D01*
X117512Y316994D01*
X117728Y320844D01*
X117956Y323148D01*
X118628Y325364D01*
X119719Y327406D01*
X121188Y329196D01*
X122978Y330664D01*
X125020Y331756D01*
X127236Y332428D01*
X129540Y332655D01*
X184658Y332653D01*
D02*
G37*
%LPC*%
G36*
X129540Y327783D02*
X128186Y327649D01*
X128186Y327649D01*
X128186D01*
X126884Y327255D01*
X125684Y326613D01*
X124633Y325750D01*
X123770Y324699D01*
X123129Y323499D01*
X122734Y322198D01*
X122601Y320844D01*
X122734Y319490D01*
X123129Y318188D01*
X123770Y316989D01*
X124633Y315937D01*
X125684Y315074D01*
X126884Y314433D01*
X128186Y314038D01*
X129540Y313905D01*
X130893Y314038D01*
X130893Y314038D01*
X130893D01*
X132195Y314433D01*
X133395Y315074D01*
X134446Y315937D01*
X135309Y316989D01*
X135950Y318188D01*
X136345Y319490D01*
X136478Y320844D01*
X136345Y322198D01*
X135950Y323499D01*
X135309Y324699D01*
X134446Y325750D01*
X133395Y326613D01*
X132195Y327255D01*
X130893Y327649D01*
X129540Y327783D01*
D02*
G37*
G36*
X184658Y327781D02*
X183304Y327647D01*
X182002Y327253D01*
X180803Y326611D01*
X179751Y325748D01*
X178888Y324697D01*
X178247Y323497D01*
X177852Y322196D01*
X177719Y320842D01*
X177852Y319488D01*
X178247Y318186D01*
X178888Y316987D01*
X179751Y315935D01*
X180803Y315072D01*
X182002Y314431D01*
X183304Y314036D01*
X184658Y313903D01*
X186011Y314036D01*
X187313Y314431D01*
X188513Y315072D01*
X189564Y315935D01*
X190427Y316987D01*
X191068Y318186D01*
X191463Y319488D01*
X191596Y320842D01*
X191463Y322196D01*
X191068Y323497D01*
X190427Y324697D01*
X189564Y325748D01*
X188513Y326611D01*
X187313Y327253D01*
X186011Y327647D01*
X184658Y327781D01*
D02*
G37*
G36*
X224028Y327779D02*
X222674Y327646D01*
X221372Y327251D01*
X220173Y326610D01*
X219121Y325747D01*
X218258Y324695D01*
X217617Y323496D01*
X217222Y322194D01*
X217089Y320840D01*
X217222Y319487D01*
X217617Y318185D01*
X218258Y316985D01*
X219121Y315934D01*
X220173Y315071D01*
X221372Y314430D01*
X222674Y314035D01*
X224028Y313901D01*
X225381Y314035D01*
X226683Y314430D01*
X227883Y315071D01*
X228934Y315934D01*
X229797Y316985D01*
X230438Y318185D01*
X230833Y319487D01*
X230967Y320840D01*
X230833Y322194D01*
X230438Y323496D01*
X229797Y324695D01*
X228934Y325747D01*
X227883Y326610D01*
X226683Y327251D01*
X225381Y327646D01*
X224028Y327779D01*
D02*
G37*
G36*
X279146Y327777D02*
X277792Y327644D01*
X276490Y327249D01*
X275291Y326608D01*
X274239Y325745D01*
X273376Y324693D01*
X272735Y323494D01*
X272340Y322192D01*
X272207Y320838D01*
X272207Y320838D01*
X272207Y320838D01*
X272340Y319485D01*
X272735Y318183D01*
X273376Y316983D01*
X274239Y315932D01*
X275291Y315069D01*
X276490Y314428D01*
X277792Y314033D01*
X279146Y313899D01*
X280500Y314033D01*
X281801Y314428D01*
X283001Y315069D01*
X284052Y315932D01*
X284915Y316983D01*
X285557Y318183D01*
X285951Y319485D01*
X286085Y320838D01*
X286085Y320838D01*
X286085Y320838D01*
X285951Y322192D01*
X285557Y323494D01*
X284915Y324693D01*
X284052Y325745D01*
X283001Y326608D01*
X281801Y327249D01*
X280500Y327644D01*
X279146Y327777D01*
D02*
G37*
G36*
X282688Y307580D02*
X281656Y307444D01*
X280695Y307046D01*
X279869Y306412D01*
X279235Y305586D01*
X278837Y304625D01*
X278701Y303593D01*
X278837Y302561D01*
X279235Y301600D01*
X279596Y301129D01*
X279349Y300629D01*
X274216D01*
X273969Y301129D01*
X274330Y301600D01*
X274728Y302561D01*
X274864Y303593D01*
X274728Y304625D01*
X274330Y305586D01*
X273696Y306412D01*
X272870Y307046D01*
X271909Y307444D01*
X270877Y307580D01*
X269845Y307444D01*
X268884Y307046D01*
X268058Y306412D01*
X267424Y305586D01*
X267026Y304625D01*
X266890Y303593D01*
X267026Y302561D01*
X267424Y301600D01*
X267785Y301129D01*
X267538Y300629D01*
X240000D01*
X239415Y300513D01*
X238919Y300181D01*
X233448Y294710D01*
X232922Y294815D01*
X232885Y294855D01*
X233015Y295842D01*
X232879Y296874D01*
X232481Y297835D01*
X231847Y298661D01*
X231021Y299294D01*
X230060Y299693D01*
X229028Y299829D01*
X227996Y299693D01*
X227034Y299294D01*
X226209Y298661D01*
X225575Y297835D01*
X225177Y296874D01*
X225041Y295842D01*
X225177Y294810D01*
X225575Y293848D01*
X226209Y293023D01*
X227034Y292389D01*
X227179Y292329D01*
X227079Y291829D01*
X223456D01*
X222981Y291889D01*
X222980Y292329D01*
Y299795D01*
X215075D01*
Y291889D01*
X215578D01*
X215730Y291389D01*
X215719Y291381D01*
X213726Y289389D01*
X213546Y289411D01*
X213215Y289585D01*
X213057Y291088D01*
X213026Y291191D01*
X213013Y291297D01*
X212505Y292862D01*
X212452Y292956D01*
X212418Y293057D01*
X211595Y294483D01*
X211524Y294563D01*
X211470Y294655D01*
X210368Y295879D01*
X210282Y295942D01*
X210210Y296021D01*
X208878Y296989D01*
X208781Y297034D01*
X208694Y297095D01*
X207190Y297765D01*
X207085Y297789D01*
X206987Y297831D01*
X205377Y298173D01*
X205270Y298175D01*
X205165Y298195D01*
X203519Y298196D01*
X203414Y298175D01*
X203307Y298173D01*
X201697Y297831D01*
X201598Y297789D01*
X201494Y297765D01*
X199990Y297096D01*
X199903Y297034D01*
X199805Y296989D01*
X198474Y296022D01*
X198401Y295943D01*
X198315Y295879D01*
X197214Y294656D01*
X197159Y294564D01*
X197089Y294483D01*
X196265Y293058D01*
X196231Y292956D01*
X196229Y292954D01*
X195729Y292997D01*
Y301300D01*
X195613Y301885D01*
X195281Y302381D01*
X193081Y304581D01*
X192585Y304913D01*
X192000Y305029D01*
X166900D01*
X166315Y304913D01*
X165819Y304581D01*
X145466Y284229D01*
X140402D01*
X140233Y284729D01*
X140625Y285031D01*
X141259Y285856D01*
X141657Y286818D01*
X141793Y287850D01*
X141657Y288882D01*
X141259Y289843D01*
X140625Y290669D01*
X139799Y291302D01*
X138838Y291701D01*
X137806Y291837D01*
X136774Y291701D01*
X135813Y291302D01*
X134987Y290669D01*
X134353Y289843D01*
X133955Y288882D01*
X133819Y287850D01*
X133955Y286818D01*
X134353Y285856D01*
X134987Y285031D01*
X135380Y284729D01*
X135210Y284229D01*
X101192D01*
X100607Y284113D01*
X100110Y283781D01*
X99779Y283285D01*
X99662Y282700D01*
Y282439D01*
X99198Y282247D01*
X98373Y281614D01*
X97739Y280788D01*
X97341Y279826D01*
X97205Y278795D01*
X97341Y277763D01*
X97739Y276801D01*
X98373Y275975D01*
X99198Y275342D01*
X100160Y274944D01*
X101192Y274808D01*
X102224Y274944D01*
X103185Y275342D01*
X104011Y275975D01*
X104645Y276801D01*
X105132Y276775D01*
X105167Y276756D01*
X105294Y275794D01*
X105692Y274833D01*
X106325Y274007D01*
X107151Y273374D01*
X108113Y272975D01*
X109145Y272839D01*
X110177Y272975D01*
X111138Y273374D01*
X111964Y274007D01*
X112597Y274833D01*
X112996Y275794D01*
X113131Y276826D01*
X112996Y277858D01*
X112597Y278820D01*
X111964Y279645D01*
X111138Y280279D01*
X110177Y280677D01*
X110246Y281171D01*
X146100D01*
X146685Y281287D01*
X147181Y281619D01*
X160618Y295055D01*
X161080Y294864D01*
Y282439D01*
X160616Y282247D01*
X159790Y281614D01*
X159157Y280788D01*
X158758Y279826D01*
X158622Y278795D01*
X158758Y277763D01*
X159157Y276801D01*
X159790Y275975D01*
X160371Y275529D01*
X160202Y275029D01*
X131495D01*
X130910Y274913D01*
X130414Y274581D01*
X124914Y269081D01*
X124582Y268585D01*
X124466Y268000D01*
Y245825D01*
X124002Y245633D01*
X123176Y245000D01*
X122542Y244174D01*
X122144Y243212D01*
X122008Y242180D01*
X122144Y241148D01*
X122542Y240187D01*
X123176Y239361D01*
X124002Y238728D01*
X124963Y238329D01*
X125995Y238193D01*
X127027Y238329D01*
X127988Y238728D01*
X128814Y239361D01*
X129448Y240187D01*
X129846Y241148D01*
X129982Y242180D01*
X129846Y243212D01*
X129448Y244174D01*
X128814Y245000D01*
X127988Y245633D01*
X127524Y245825D01*
Y267367D01*
X132129Y271971D01*
X156084D01*
X156331Y271471D01*
X155928Y270946D01*
X155530Y269984D01*
X155394Y268952D01*
X155530Y267920D01*
X155928Y266959D01*
X156562Y266133D01*
X157387Y265499D01*
X158349Y265101D01*
X159381Y264965D01*
X160413Y265101D01*
X161374Y265499D01*
X162200Y266133D01*
X162833Y266959D01*
X163232Y267920D01*
X163368Y268952D01*
X163232Y269984D01*
X162833Y270946D01*
X162431Y271471D01*
X162677Y271971D01*
X163658D01*
X164243Y272087D01*
X164740Y272419D01*
X175833Y283512D01*
X176497Y283468D01*
X176839Y283023D01*
X177664Y282389D01*
X177808Y282329D01*
X177709Y281829D01*
X176800D01*
X176215Y281713D01*
X175719Y281381D01*
X173419Y279081D01*
X173087Y278585D01*
X172971Y278000D01*
Y264633D01*
X169466Y261129D01*
X149406D01*
X148821Y261013D01*
X148325Y260681D01*
X136725Y249081D01*
X136393Y248585D01*
X136277Y248000D01*
Y245825D01*
X135813Y245633D01*
X134987Y245000D01*
X134353Y244174D01*
X133955Y243212D01*
X133819Y242180D01*
X133955Y241148D01*
X134353Y240187D01*
X134987Y239361D01*
X135813Y238728D01*
X136774Y238329D01*
X137806Y238193D01*
X138838Y238329D01*
X139799Y238728D01*
X140625Y239361D01*
X141259Y240187D01*
X141657Y241148D01*
X141793Y242180D01*
X141657Y243212D01*
X141259Y244174D01*
X140625Y245000D01*
X139799Y245633D01*
X139335Y245825D01*
Y247366D01*
X150040Y258071D01*
X170100D01*
X170685Y258187D01*
X171181Y258519D01*
X175581Y262919D01*
X175913Y263415D01*
X176446Y263534D01*
X176839Y263023D01*
X177664Y262389D01*
X178626Y261991D01*
X179658Y261855D01*
X179919Y261889D01*
X180153Y261416D01*
X178919Y260181D01*
X178797Y259999D01*
X178656Y259830D01*
X178632Y259752D01*
X178587Y259685D01*
X178585Y259676D01*
X177664Y259295D01*
X176839Y258661D01*
X176205Y257835D01*
X175807Y256874D01*
X175671Y255842D01*
X175807Y254810D01*
X176205Y253848D01*
X176839Y253023D01*
X177664Y252389D01*
X178626Y251991D01*
X179658Y251855D01*
X180690Y251991D01*
X181651Y252389D01*
X182477Y253023D01*
X183110Y253848D01*
X183509Y254810D01*
X183644Y255842D01*
X183509Y256874D01*
X183110Y257835D01*
X182477Y258661D01*
X182352Y258757D01*
X182319Y259256D01*
X185781Y262719D01*
X186089Y263178D01*
X186157Y263221D01*
X186637Y263285D01*
X186838Y263023D01*
X187664Y262389D01*
X188626Y261991D01*
X189658Y261855D01*
X190690Y261991D01*
X191651Y262389D01*
X192477Y263023D01*
X193110Y263848D01*
X193509Y264810D01*
X193644Y265842D01*
X193509Y266874D01*
X193110Y267835D01*
X192477Y268661D01*
X192275Y268816D01*
X192400Y269350D01*
X192585Y269387D01*
X193081Y269719D01*
X194947Y271584D01*
X195447Y271377D01*
X195447Y256429D01*
X195457Y256376D01*
X195452Y256322D01*
X195624Y254685D01*
X195656Y254583D01*
X195669Y254477D01*
X196177Y252911D01*
X196230Y252818D01*
X196264Y252716D01*
X197087Y251291D01*
X197157Y251210D01*
X197212Y251118D01*
X198314Y249895D01*
X198399Y249831D01*
X198472Y249752D01*
X199804Y248785D01*
X199901Y248740D01*
X199988Y248678D01*
X201492Y248008D01*
X201596Y247985D01*
X201695Y247943D01*
X203305Y247600D01*
X203412Y247599D01*
X203517Y247578D01*
X205163Y247578D01*
X205268Y247599D01*
X205375Y247600D01*
X206985Y247942D01*
X207084Y247985D01*
X207188Y248008D01*
X208692Y248678D01*
X208779Y248740D01*
X208876Y248784D01*
X210208Y249752D01*
X210281Y249830D01*
X210367Y249894D01*
X211468Y251118D01*
X211523Y251210D01*
X211593Y251290D01*
X212416Y252716D01*
X212451Y252817D01*
X212503Y252910D01*
X213012Y254476D01*
X213024Y254582D01*
X213056Y254684D01*
X213228Y256322D01*
X213223Y256375D01*
X213234Y256428D01*
X213234Y265396D01*
X213734Y265603D01*
X214577Y264760D01*
X215073Y264429D01*
X215358Y264372D01*
X215575Y263848D01*
X216209Y263023D01*
X217034Y262389D01*
X217996Y261991D01*
X219028Y261855D01*
X220060Y261991D01*
X221021Y262389D01*
X221847Y263023D01*
X222481Y263848D01*
X222879Y264810D01*
X223015Y265842D01*
X222879Y266874D01*
X222481Y267835D01*
X221847Y268661D01*
X221021Y269295D01*
X220060Y269693D01*
X219028Y269829D01*
X217996Y269693D01*
X217034Y269295D01*
X216529Y268907D01*
X216029Y269154D01*
Y272530D01*
X216529Y272777D01*
X217034Y272389D01*
X217996Y271991D01*
X219028Y271855D01*
X220060Y271991D01*
X221021Y272389D01*
X221847Y273023D01*
X222481Y273848D01*
X222879Y274810D01*
X223015Y275842D01*
X222879Y276874D01*
X222481Y277835D01*
X221847Y278661D01*
X221021Y279294D01*
X220060Y279693D01*
X219028Y279829D01*
X217996Y279693D01*
X217034Y279294D01*
X216529Y278907D01*
X216029Y279154D01*
Y282530D01*
X216529Y282777D01*
X217034Y282389D01*
X217996Y281991D01*
X219028Y281855D01*
X220060Y281991D01*
X221021Y282389D01*
X221847Y283023D01*
X222481Y283848D01*
X222879Y284810D01*
X223015Y285842D01*
X222879Y286874D01*
X222481Y287835D01*
X222147Y288271D01*
X222393Y288771D01*
X225663D01*
X225909Y288271D01*
X225575Y287835D01*
X225177Y286874D01*
X225041Y285842D01*
X225177Y284810D01*
X225575Y283848D01*
X226209Y283023D01*
X227034Y282389D01*
X227586Y282161D01*
X227615Y282015D01*
X227946Y281519D01*
X228443Y281187D01*
X229028Y281071D01*
X231366D01*
X242471Y269967D01*
Y257500D01*
X242587Y256915D01*
X242919Y256419D01*
X246446Y252891D01*
X246254Y252429D01*
X231852D01*
X231691Y252903D01*
X231847Y253023D01*
X232481Y253848D01*
X232879Y254810D01*
X233015Y255842D01*
X232879Y256874D01*
X232481Y257835D01*
X231847Y258661D01*
X231021Y259295D01*
X230060Y259693D01*
X229028Y259829D01*
X227996Y259693D01*
X227034Y259295D01*
X226209Y258661D01*
X225575Y257835D01*
X225177Y256874D01*
X225041Y255842D01*
X225177Y254810D01*
X225575Y253848D01*
X226209Y253023D01*
X227034Y252389D01*
X227498Y252197D01*
Y252000D01*
X227615Y251415D01*
X227946Y250919D01*
X229046Y249819D01*
X229542Y249487D01*
X230128Y249371D01*
X259258D01*
X259428Y248871D01*
X259200Y248695D01*
X258566Y247870D01*
X258168Y246908D01*
X258098Y246376D01*
X262019D01*
Y245876D01*
X262519D01*
Y241955D01*
X263051Y242025D01*
X264012Y242424D01*
X264371Y242699D01*
X264871Y242452D01*
Y240000D01*
X264987Y239415D01*
X265319Y238919D01*
X267619Y236619D01*
X268115Y236287D01*
X268700Y236171D01*
X288300D01*
X288885Y236287D01*
X289381Y236619D01*
X291681Y238919D01*
X292013Y239415D01*
X292129Y240000D01*
Y256475D01*
X303086Y267432D01*
X303535Y267211D01*
X303504Y266979D01*
X303640Y265947D01*
X304038Y264985D01*
X304672Y264160D01*
X305498Y263526D01*
X306459Y263128D01*
X307491Y262992D01*
X308523Y263128D01*
X309484Y263526D01*
X310310Y264160D01*
X310944Y264985D01*
X311342Y265947D01*
X311478Y266979D01*
X311342Y268011D01*
X310944Y268972D01*
X310310Y269798D01*
X309484Y270431D01*
X308523Y270830D01*
X307491Y270966D01*
X307259Y270935D01*
X307037Y271384D01*
X308572Y272919D01*
X308904Y273415D01*
X309020Y274000D01*
Y275145D01*
X309484Y275337D01*
X310310Y275971D01*
X310944Y276796D01*
X311342Y277758D01*
X311478Y278790D01*
X311342Y279822D01*
X310944Y280783D01*
X310310Y281609D01*
X309484Y282242D01*
X308523Y282641D01*
X307491Y282777D01*
X306459Y282641D01*
X305498Y282242D01*
X304672Y281609D01*
X304038Y280783D01*
X303640Y279822D01*
X303513Y278860D01*
X303478Y278841D01*
X302991Y278815D01*
X302358Y279640D01*
X301532Y280274D01*
X300570Y280672D01*
X299538Y280808D01*
X298506Y280672D01*
X297545Y280274D01*
X296719Y279640D01*
X296086Y278815D01*
X295687Y277853D01*
X295551Y276821D01*
X295687Y275789D01*
X296086Y274828D01*
X296719Y274002D01*
X297545Y273369D01*
X298506Y272970D01*
X299538Y272834D01*
X300570Y272970D01*
X301532Y273369D01*
X302358Y274002D01*
X302991Y274828D01*
X303389Y275789D01*
X303516Y276751D01*
X303551Y276770D01*
X304038Y276796D01*
X304672Y275971D01*
X305498Y275337D01*
X305962Y275145D01*
Y274634D01*
X289519Y258190D01*
X289187Y257694D01*
X289071Y257109D01*
Y240634D01*
X287667Y239229D01*
X286040D01*
X285793Y239729D01*
X286141Y240182D01*
X286539Y241144D01*
X286675Y242176D01*
X286539Y243208D01*
X286141Y244169D01*
X285507Y244995D01*
X284681Y245628D01*
X284217Y245820D01*
Y248000D01*
X284101Y248585D01*
X283769Y249081D01*
X278269Y254581D01*
X277773Y254913D01*
X277188Y255029D01*
X248634D01*
X245529Y258134D01*
Y266550D01*
X246029Y266719D01*
X246483Y266128D01*
X247309Y265494D01*
X248270Y265096D01*
X249302Y264960D01*
X250334Y265096D01*
X251296Y265494D01*
X252121Y266128D01*
X252755Y266954D01*
X253153Y267915D01*
X253289Y268947D01*
X253153Y269979D01*
X252755Y270941D01*
X252121Y271766D01*
X251296Y272400D01*
X250334Y272798D01*
X249302Y272934D01*
X248270Y272798D01*
X247309Y272400D01*
X246483Y271766D01*
X245946Y271067D01*
X245488Y271126D01*
X245418Y271162D01*
X245413Y271185D01*
X245081Y271681D01*
X233081Y283681D01*
X232585Y284013D01*
X232565Y284051D01*
X232879Y284810D01*
X233015Y285842D01*
X232879Y286874D01*
X232481Y287835D01*
X232002Y288459D01*
X232056Y289021D01*
X232100Y289097D01*
X232281Y289219D01*
X240634Y297571D01*
X282688D01*
X283273Y297687D01*
X283769Y298019D01*
X284101Y298515D01*
X284217Y299100D01*
Y299948D01*
X284681Y300140D01*
X285507Y300774D01*
X286141Y301600D01*
X286539Y302561D01*
X286675Y303593D01*
X286539Y304625D01*
X286141Y305586D01*
X285507Y306412D01*
X284681Y307046D01*
X283720Y307444D01*
X282688Y307580D01*
D02*
G37*
G36*
X137806Y307585D02*
X136774Y307449D01*
X135813Y307050D01*
X134987Y306417D01*
X134353Y305591D01*
X133955Y304630D01*
X133819Y303598D01*
X133955Y302566D01*
X134353Y301604D01*
X134987Y300779D01*
X135813Y300145D01*
X136774Y299747D01*
X137806Y299611D01*
X138838Y299747D01*
X139799Y300145D01*
X140625Y300779D01*
X141259Y301604D01*
X141657Y302566D01*
X141793Y303598D01*
X141657Y304630D01*
X141259Y305591D01*
X140625Y306417D01*
X139799Y307050D01*
X138838Y307449D01*
X137806Y307585D01*
D02*
G37*
G36*
X125995D02*
X124963Y307449D01*
X124002Y307050D01*
X123176Y306417D01*
X122542Y305591D01*
X122144Y304630D01*
X122008Y303598D01*
X122144Y302566D01*
X122542Y301604D01*
X123176Y300779D01*
X124002Y300145D01*
X124963Y299747D01*
X125995Y299611D01*
X127027Y299747D01*
X127988Y300145D01*
X128814Y300779D01*
X129448Y301604D01*
X129846Y302566D01*
X129982Y303598D01*
X129846Y304630D01*
X129448Y305591D01*
X128814Y306417D01*
X127988Y307050D01*
X127027Y307449D01*
X125995Y307585D01*
D02*
G37*
G36*
X270877Y291832D02*
X269845Y291696D01*
X268884Y291298D01*
X268058Y290664D01*
X267424Y289838D01*
X267026Y288877D01*
X266890Y287845D01*
X267026Y286813D01*
X267424Y285851D01*
X268058Y285026D01*
X268884Y284392D01*
X269845Y283994D01*
X270877Y283858D01*
X271909Y283994D01*
X272870Y284392D01*
X273696Y285026D01*
X274330Y285851D01*
X274728Y286813D01*
X274864Y287845D01*
X274728Y288877D01*
X274330Y289838D01*
X273696Y290664D01*
X272870Y291298D01*
X271909Y291696D01*
X270877Y291832D01*
D02*
G37*
G36*
X246074Y282777D02*
X245042Y282641D01*
X244080Y282242D01*
X243255Y281609D01*
X242621Y280783D01*
X242223Y279822D01*
X242087Y278790D01*
X242223Y277758D01*
X242621Y276796D01*
X243255Y275971D01*
X244080Y275337D01*
X245042Y274939D01*
X246074Y274803D01*
X247106Y274939D01*
X248067Y275337D01*
X248893Y275971D01*
X249527Y276796D01*
X249925Y277758D01*
X250061Y278790D01*
X249925Y279822D01*
X249527Y280783D01*
X248893Y281609D01*
X248067Y282242D01*
X247106Y282641D01*
X246074Y282777D01*
D02*
G37*
G36*
X229028Y279829D02*
X227996Y279693D01*
X227034Y279294D01*
X226209Y278661D01*
X225575Y277835D01*
X225177Y276874D01*
X225041Y275842D01*
X225177Y274810D01*
X225575Y273848D01*
X226209Y273023D01*
X227034Y272389D01*
X227996Y271991D01*
X229028Y271855D01*
X230060Y271991D01*
X231021Y272389D01*
X231847Y273023D01*
X232481Y273848D01*
X232879Y274810D01*
X233015Y275842D01*
X232879Y276874D01*
X232481Y277835D01*
X231847Y278661D01*
X231021Y279294D01*
X230060Y279693D01*
X229028Y279829D01*
D02*
G37*
G36*
X101192Y270971D02*
X100160Y270835D01*
X99198Y270436D01*
X98373Y269803D01*
X97739Y268977D01*
X97341Y268016D01*
X97205Y266984D01*
X97341Y265952D01*
X97739Y264990D01*
X98373Y264164D01*
X99198Y263531D01*
X100160Y263133D01*
X101192Y262997D01*
X102224Y263133D01*
X103185Y263531D01*
X104011Y264164D01*
X104645Y264990D01*
X105043Y265952D01*
X105179Y266984D01*
X105043Y268016D01*
X104645Y268977D01*
X104011Y269803D01*
X103185Y270436D01*
X102224Y270835D01*
X101192Y270971D01*
D02*
G37*
G36*
X229028Y269829D02*
X227996Y269693D01*
X227034Y269295D01*
X226209Y268661D01*
X225575Y267835D01*
X225177Y266874D01*
X225041Y265842D01*
X225177Y264810D01*
X225575Y263848D01*
X226209Y263023D01*
X227034Y262389D01*
X227996Y261991D01*
X229028Y261855D01*
X230060Y261991D01*
X231021Y262389D01*
X231847Y263023D01*
X232481Y263848D01*
X232879Y264810D01*
X233015Y265842D01*
X232879Y266874D01*
X232481Y267835D01*
X231847Y268661D01*
X231021Y269295D01*
X230060Y269693D01*
X229028Y269829D01*
D02*
G37*
G36*
X219528Y259763D02*
Y256342D01*
X222949D01*
X222879Y256874D01*
X222481Y257835D01*
X221847Y258661D01*
X221021Y259295D01*
X220060Y259693D01*
X219528Y259763D01*
D02*
G37*
G36*
X190158D02*
Y256342D01*
X193579D01*
X193509Y256874D01*
X193110Y257835D01*
X192477Y258661D01*
X191651Y259295D01*
X190690Y259693D01*
X190158Y259763D01*
D02*
G37*
G36*
X218528D02*
X217996Y259693D01*
X217034Y259295D01*
X216209Y258661D01*
X215575Y257835D01*
X215177Y256874D01*
X215107Y256342D01*
X218528D01*
Y259763D01*
D02*
G37*
G36*
X189158D02*
X188626Y259693D01*
X187664Y259295D01*
X186838Y258661D01*
X186205Y257835D01*
X185807Y256874D01*
X185737Y256342D01*
X189158D01*
Y259763D01*
D02*
G37*
G36*
X222949Y255342D02*
X219528D01*
Y251921D01*
X220060Y251991D01*
X221021Y252389D01*
X221847Y253023D01*
X222481Y253848D01*
X222879Y254810D01*
X222949Y255342D01*
D02*
G37*
G36*
X193579D02*
X190158D01*
Y251921D01*
X190690Y251991D01*
X191651Y252389D01*
X192477Y253023D01*
X193110Y253848D01*
X193509Y254810D01*
X193579Y255342D01*
D02*
G37*
G36*
X218528D02*
X215107D01*
X215177Y254810D01*
X215575Y253848D01*
X216209Y253023D01*
X217034Y252389D01*
X217996Y251991D01*
X218528Y251921D01*
Y255342D01*
D02*
G37*
G36*
X189158D02*
X185737D01*
X185807Y254810D01*
X186205Y253848D01*
X186838Y253023D01*
X187664Y252389D01*
X188626Y251991D01*
X189158Y251921D01*
Y255342D01*
D02*
G37*
G36*
X147164Y249802D02*
Y246381D01*
X150585D01*
X150515Y246913D01*
X150117Y247875D01*
X149483Y248700D01*
X148658Y249334D01*
X147696Y249732D01*
X147164Y249802D01*
D02*
G37*
G36*
X146164D02*
X145632Y249732D01*
X144671Y249334D01*
X143845Y248700D01*
X143211Y247875D01*
X142813Y246913D01*
X142743Y246381D01*
X146164D01*
Y249802D01*
D02*
G37*
G36*
X150585Y245381D02*
X147164D01*
Y241960D01*
X147696Y242030D01*
X148658Y242428D01*
X149483Y243062D01*
X150117Y243888D01*
X150515Y244849D01*
X150585Y245381D01*
D02*
G37*
G36*
X146164D02*
X142743D01*
X142813Y244849D01*
X143211Y243888D01*
X143845Y243062D01*
X144671Y242428D01*
X145632Y242030D01*
X146164Y241960D01*
Y245381D01*
D02*
G37*
G36*
X261519Y245376D02*
X258098D01*
X258168Y244845D01*
X258566Y243883D01*
X259200Y243057D01*
X260025Y242424D01*
X260987Y242025D01*
X261519Y241955D01*
Y245376D01*
D02*
G37*
G36*
X129536Y231874D02*
X128182Y231741D01*
X126881Y231346D01*
X125681Y230705D01*
X124629Y229842D01*
X123767Y228790D01*
X123125Y227591D01*
X122730Y226289D01*
X122730Y226289D01*
X122597Y224935D01*
X122730Y223581D01*
X123125Y222280D01*
X123767Y221080D01*
X124629Y220028D01*
X125681Y219166D01*
X126881Y218524D01*
X128182Y218129D01*
X129536Y217996D01*
X130890Y218129D01*
X132191Y218524D01*
X133391Y219166D01*
X134442Y220028D01*
X135306Y221080D01*
X135947Y222280D01*
X136342Y223581D01*
X136342Y223582D01*
X136475Y224935D01*
X136342Y226289D01*
X135947Y227591D01*
X135306Y228790D01*
X134443Y229842D01*
X133391Y230705D01*
X132191Y231346D01*
X130890Y231741D01*
X129536Y231874D01*
D02*
G37*
G36*
X184654Y231872D02*
X183300Y231739D01*
X181999Y231344D01*
X180799Y230703D01*
X179747Y229840D01*
X178885Y228788D01*
X178243Y227589D01*
X177848Y226287D01*
X177715Y224933D01*
X177848Y223579D01*
X178243Y222278D01*
X178885Y221078D01*
X179747Y220026D01*
X180799Y219164D01*
X181999Y218522D01*
X183300Y218127D01*
X184654Y217994D01*
X186008Y218127D01*
X187310Y218522D01*
X188509Y219163D01*
X189561Y220026D01*
X190424Y221078D01*
X191065Y222278D01*
X191460Y223579D01*
X191593Y224933D01*
X191460Y226287D01*
X191065Y227588D01*
X190424Y228788D01*
X189561Y229840D01*
X188509Y230702D01*
X187310Y231344D01*
X186008Y231739D01*
X184654Y231872D01*
D02*
G37*
G36*
X224024Y231871D02*
X222670Y231737D01*
X221369Y231342D01*
X220169Y230701D01*
X219118Y229838D01*
X218255Y228787D01*
X217613Y227587D01*
X217219Y226285D01*
X217085Y224932D01*
X217219Y223578D01*
X217613Y222276D01*
X218255Y221077D01*
X219118Y220025D01*
X220169Y219162D01*
X221369Y218521D01*
X222671Y218126D01*
X224024Y217993D01*
X225378Y218126D01*
X226680Y218521D01*
X227879Y219162D01*
X228931Y220025D01*
X229794Y221076D01*
X230435Y222276D01*
X230830Y223578D01*
X230963Y224932D01*
X230830Y226285D01*
X230435Y227587D01*
X229794Y228787D01*
X228931Y229838D01*
X227879Y230701D01*
X226680Y231342D01*
X225378Y231737D01*
X224024Y231871D01*
D02*
G37*
G36*
X279142Y231869D02*
X277789Y231735D01*
X277789Y231735D01*
X277789Y231735D01*
X276487Y231340D01*
X275287Y230699D01*
X274236Y229836D01*
X273373Y228785D01*
X272732Y227585D01*
X272337Y226283D01*
X272203Y224930D01*
X272337Y223576D01*
X272732Y222274D01*
X273373Y221075D01*
X274236Y220023D01*
X275287Y219160D01*
X276487Y218519D01*
X277789Y218124D01*
X279142Y217991D01*
X280496Y218124D01*
X280496Y218124D01*
X280496Y218124D01*
X281798Y218519D01*
X282997Y219160D01*
X284049Y220023D01*
X284912Y221075D01*
X285553Y222274D01*
X285948Y223576D01*
X286081Y224930D01*
X285948Y226283D01*
X285553Y227585D01*
X284912Y228785D01*
X284049Y229836D01*
X282997Y230699D01*
X281798Y231340D01*
X280496Y231735D01*
X279142Y231869D01*
D02*
G37*
G36*
X203516Y233783D02*
X203411Y233762D01*
X203304Y233761D01*
X201694Y233418D01*
X201596Y233376D01*
X201491Y233352D01*
X199988Y232683D01*
X199900Y232621D01*
X199803Y232576D01*
X198471Y231609D01*
X198399Y231530D01*
X198313Y231466D01*
X197211Y230243D01*
X197157Y230151D01*
X197086Y230071D01*
X196263Y228645D01*
X196229Y228544D01*
X196176Y228450D01*
X195668Y226885D01*
X195655Y226779D01*
X195623Y226676D01*
X195451Y225039D01*
X195451Y225036D01*
X195450Y225033D01*
X195233Y222828D01*
X194619Y220805D01*
X193623Y218940D01*
X192281Y217306D01*
X190646Y215964D01*
X188781Y214967D01*
X186758Y214354D01*
X184604Y214142D01*
X172843Y214142D01*
X172790Y214132D01*
X172736Y214137D01*
X171099Y213965D01*
X170997Y213933D01*
X170890Y213920D01*
X169325Y213411D01*
X169231Y213359D01*
X169130Y213325D01*
X167705Y212502D01*
X167624Y212431D01*
X167532Y212377D01*
X166309Y211275D01*
X166245Y211189D01*
X166166Y211117D01*
X165199Y209785D01*
X165154Y209688D01*
X165092Y209600D01*
X164422Y208097D01*
X164399Y207992D01*
X164357Y207894D01*
X164014Y206284D01*
X164013Y206177D01*
X163992Y206072D01*
X163992Y204426D01*
X164013Y204321D01*
X164014Y204214D01*
X164356Y202604D01*
X164399Y202505D01*
X164422Y202401D01*
X165092Y200897D01*
X165153Y200810D01*
X165198Y200712D01*
X166166Y199381D01*
X166244Y199308D01*
X166308Y199222D01*
X167532Y198121D01*
X167624Y198066D01*
X167704Y197995D01*
X169130Y197172D01*
X169231Y197138D01*
X169324Y197086D01*
X170890Y196577D01*
X170996Y196564D01*
X171098Y196533D01*
X172735Y196360D01*
X172789Y196365D01*
X172842Y196355D01*
X184603Y196354D01*
X186757Y196142D01*
X188781Y195528D01*
X190646Y194531D01*
X192280Y193190D01*
X193622Y191555D01*
X194618Y189690D01*
X195232Y187667D01*
X195449Y185463D01*
X195450Y185459D01*
X195450Y185456D01*
X195622Y183819D01*
X195653Y183717D01*
X195666Y183610D01*
X196175Y182045D01*
X196227Y181951D01*
X196261Y181850D01*
X197084Y180424D01*
X197155Y180344D01*
X197210Y180252D01*
X198311Y179029D01*
X198397Y178965D01*
X198469Y178886D01*
X199801Y177919D01*
X199898Y177874D01*
X199986Y177812D01*
X201489Y177142D01*
X201594Y177119D01*
X201692Y177076D01*
X203302Y176734D01*
X203409Y176733D01*
X203514Y176712D01*
X205160Y176712D01*
X205265Y176733D01*
X205372Y176734D01*
X206983Y177076D01*
X207081Y177119D01*
X207185Y177142D01*
X208689Y177812D01*
X208776Y177873D01*
X208874Y177918D01*
X210206Y178886D01*
X210278Y178964D01*
X210364Y179028D01*
X211465Y180252D01*
X211520Y180343D01*
X211591Y180424D01*
X212414Y181850D01*
X212448Y181951D01*
X212501Y182044D01*
X213009Y183610D01*
X213022Y183716D01*
X213054Y183818D01*
X213226Y185455D01*
X213225Y185459D01*
X213226Y185462D01*
X213444Y187666D01*
X214057Y189690D01*
X215054Y191554D01*
X216396Y193189D01*
X218030Y194530D01*
X219895Y195527D01*
X221919Y196141D01*
X224073Y196353D01*
X235834Y196353D01*
X235887Y196363D01*
X235941Y196358D01*
X237578Y196530D01*
X237680Y196562D01*
X237786Y196574D01*
X239352Y197083D01*
X239445Y197135D01*
X239547Y197170D01*
X240972Y197993D01*
X241053Y198063D01*
X241145Y198118D01*
X242368Y199220D01*
X242432Y199305D01*
X242511Y199378D01*
X243478Y200710D01*
X243523Y200807D01*
X243585Y200894D01*
X244254Y202398D01*
X244278Y202502D01*
X244320Y202601D01*
X244663Y204211D01*
X244664Y204318D01*
X244685Y204423D01*
X244685Y206069D01*
X244664Y206174D01*
X244663Y206281D01*
X244321Y207891D01*
X244278Y207989D01*
X244255Y208094D01*
X243585Y209598D01*
X243523Y209685D01*
X243479Y209782D01*
X242511Y211114D01*
X242432Y211187D01*
X242368Y211272D01*
X241145Y212374D01*
X241053Y212429D01*
X240973Y212499D01*
X239547Y213322D01*
X239446Y213357D01*
X239352Y213409D01*
X237787Y213918D01*
X237681Y213930D01*
X237579Y213962D01*
X235941Y214134D01*
X235888Y214129D01*
X235835Y214140D01*
X224074Y214140D01*
X221919Y214352D01*
X219896Y214966D01*
X218031Y215963D01*
X216397Y217305D01*
X215055Y218939D01*
X214059Y220804D01*
X213445Y222828D01*
X213228Y225032D01*
X213227Y225035D01*
X213227Y225039D01*
X213055Y226676D01*
X213023Y226778D01*
X213011Y226884D01*
X212502Y228450D01*
X212450Y228543D01*
X212416Y228644D01*
X211593Y230070D01*
X211522Y230151D01*
X211467Y230242D01*
X210366Y231466D01*
X210280Y231530D01*
X210207Y231609D01*
X208876Y232576D01*
X208779Y232621D01*
X208691Y232683D01*
X207187Y233352D01*
X207083Y233376D01*
X206985Y233418D01*
X205375Y233760D01*
X205268Y233762D01*
X205163Y233783D01*
X203516Y233783D01*
D02*
G37*
G36*
X129535Y192504D02*
X129534D01*
X128181Y192371D01*
X126879Y191976D01*
X125680Y191334D01*
X124628Y190472D01*
X123765Y189420D01*
X123124Y188220D01*
X122729Y186919D01*
X122596Y185565D01*
X122729Y184211D01*
X123124Y182910D01*
X123765Y181710D01*
X124628Y180658D01*
X125680Y179796D01*
X126879Y179154D01*
X128181Y178759D01*
X129534Y178626D01*
X129535D01*
X130888Y178759D01*
X132190Y179154D01*
X133390Y179796D01*
X134441Y180658D01*
X135304Y181710D01*
X135945Y182910D01*
X136340Y184211D01*
X136474Y185565D01*
X136340Y186919D01*
X135945Y188220D01*
X135304Y189420D01*
X134441Y190472D01*
X133390Y191334D01*
X132190Y191976D01*
X130888Y192371D01*
X129535Y192504D01*
D02*
G37*
G36*
X184653Y192502D02*
X183299Y192369D01*
X181997Y191974D01*
X180798Y191332D01*
X179746Y190470D01*
X178883Y189418D01*
X178242Y188218D01*
X177847Y186917D01*
X177714Y185563D01*
X177847Y184209D01*
X178242Y182908D01*
X178883Y181708D01*
X179746Y180656D01*
X180798Y179794D01*
X181997Y179152D01*
X183299Y178757D01*
X184653Y178624D01*
X186006Y178757D01*
X187308Y179152D01*
X188508Y179794D01*
X189559Y180656D01*
X190422Y181708D01*
X191063Y182908D01*
X191458Y184209D01*
X191592Y185563D01*
X191458Y186917D01*
X191063Y188218D01*
X190422Y189418D01*
X189559Y190470D01*
X188508Y191332D01*
X187308Y191974D01*
X186006Y192369D01*
X184653Y192502D01*
D02*
G37*
G36*
X224023Y192500D02*
X222669Y192367D01*
X221367Y191972D01*
X220168Y191331D01*
X219116Y190468D01*
X219116Y190468D01*
X219116Y190468D01*
X218253Y189417D01*
X217612Y188217D01*
X217217Y186915D01*
X217084Y185562D01*
X217217Y184208D01*
X217612Y182906D01*
X218253Y181707D01*
X219116Y180655D01*
X220168Y179792D01*
X221367Y179151D01*
X222669Y178756D01*
X224023Y178623D01*
X225376Y178756D01*
X226678Y179151D01*
X227878Y179792D01*
X228929Y180655D01*
X228929Y180655D01*
X228929Y180655D01*
X229792Y181707D01*
X230434Y182906D01*
X230828Y184208D01*
X230962Y185562D01*
X230828Y186915D01*
X230434Y188217D01*
X229792Y189417D01*
X228929Y190468D01*
X227878Y191331D01*
X226678Y191972D01*
X225377Y192367D01*
X224023Y192500D01*
D02*
G37*
G36*
X279141Y192499D02*
X277787Y192365D01*
X276485Y191970D01*
X275286Y191329D01*
X274234Y190466D01*
X273371Y189415D01*
X272730Y188215D01*
X272335Y186913D01*
X272202Y185560D01*
X272335Y184206D01*
X272335Y184206D01*
Y184206D01*
X272730Y182904D01*
X273371Y181704D01*
X274234Y180653D01*
X275286Y179790D01*
X276485Y179149D01*
X277787Y178754D01*
X279141Y178621D01*
X280494Y178754D01*
X281796Y179149D01*
X282996Y179790D01*
X284047Y180653D01*
X284910Y181704D01*
X285552Y182904D01*
X285946Y184206D01*
X286080Y185559D01*
X285946Y186913D01*
X285946Y186913D01*
Y186913D01*
X285552Y188215D01*
X284910Y189415D01*
X284047Y190466D01*
X282996Y191329D01*
X281796Y191970D01*
X280494Y192365D01*
X279141Y192499D01*
D02*
G37*
G36*
X147158Y168539D02*
Y165118D01*
X150579D01*
X150509Y165650D01*
X150111Y166612D01*
X149477Y167437D01*
X148652Y168071D01*
X147690Y168469D01*
X147158Y168539D01*
D02*
G37*
G36*
X146158D02*
X145626Y168469D01*
X144665Y168071D01*
X143839Y167437D01*
X143205Y166612D01*
X142807Y165650D01*
X142737Y165118D01*
X146158D01*
Y168539D01*
D02*
G37*
G36*
X262513Y168534D02*
Y165113D01*
X265934D01*
X265864Y165645D01*
X265465Y166607D01*
X264832Y167432D01*
X264006Y168066D01*
X263045Y168464D01*
X262513Y168534D01*
D02*
G37*
G36*
X261513D02*
X260981Y168464D01*
X260019Y168066D01*
X259193Y167432D01*
X258560Y166607D01*
X258162Y165645D01*
X258092Y165113D01*
X261513D01*
Y168534D01*
D02*
G37*
G36*
X270871Y172301D02*
X269839Y172165D01*
X268877Y171767D01*
X268052Y171133D01*
X267418Y170308D01*
X267020Y169346D01*
X266884Y168314D01*
X267020Y167282D01*
X267418Y166321D01*
X268052Y165495D01*
X268877Y164862D01*
X269839Y164463D01*
X270871Y164327D01*
X271903Y164463D01*
X272864Y164862D01*
X273690Y165495D01*
X274324Y166321D01*
X274722Y167282D01*
X274858Y168314D01*
X274722Y169346D01*
X274324Y170308D01*
X273690Y171133D01*
X272864Y171767D01*
X271903Y172165D01*
X270871Y172301D01*
D02*
G37*
G36*
X150579Y164118D02*
X147158D01*
Y160697D01*
X147690Y160767D01*
X148652Y161165D01*
X149477Y161799D01*
X150111Y162625D01*
X150509Y163586D01*
X150579Y164118D01*
D02*
G37*
G36*
X146158D02*
X142737D01*
X142807Y163586D01*
X143205Y162625D01*
X143839Y161799D01*
X144665Y161165D01*
X145626Y160767D01*
X146158Y160697D01*
Y164118D01*
D02*
G37*
G36*
X265934Y164113D02*
X262513D01*
Y160692D01*
X263045Y160762D01*
X264006Y161161D01*
X264832Y161794D01*
X265465Y162620D01*
X265864Y163582D01*
X265934Y164113D01*
D02*
G37*
G36*
X261513D02*
X258092D01*
X258162Y163582D01*
X258560Y162620D01*
X259193Y161794D01*
X260019Y161161D01*
X260981Y160762D01*
X261513Y160692D01*
Y164113D01*
D02*
G37*
G36*
X219528Y158575D02*
Y155154D01*
X222949D01*
X222879Y155686D01*
X222481Y156648D01*
X221847Y157474D01*
X221021Y158107D01*
X220060Y158505D01*
X219528Y158575D01*
D02*
G37*
G36*
X190158D02*
Y155154D01*
X193579D01*
X193509Y155686D01*
X193110Y156648D01*
X192477Y157474D01*
X191651Y158107D01*
X190690Y158505D01*
X190158Y158575D01*
D02*
G37*
G36*
X218528D02*
X217996Y158505D01*
X217034Y158107D01*
X216209Y157474D01*
X215575Y156648D01*
X215177Y155686D01*
X215107Y155154D01*
X218528D01*
Y158575D01*
D02*
G37*
G36*
X137800Y172306D02*
X136768Y172170D01*
X135807Y171772D01*
X134981Y171138D01*
X134347Y170312D01*
X133949Y169351D01*
X133813Y168319D01*
X133949Y167287D01*
X134347Y166326D01*
X134981Y165500D01*
X135807Y164866D01*
X136271Y164674D01*
Y152099D01*
X136032Y151940D01*
X135785Y151878D01*
X127518Y160144D01*
Y164674D01*
X127982Y164866D01*
X128808Y165500D01*
X129442Y166326D01*
X129840Y167287D01*
X129976Y168319D01*
X129840Y169351D01*
X129442Y170312D01*
X128808Y171138D01*
X127982Y171772D01*
X127021Y172170D01*
X125989Y172306D01*
X124957Y172170D01*
X123996Y171772D01*
X123170Y171138D01*
X122536Y170312D01*
X122138Y169351D01*
X122002Y168319D01*
X122138Y167287D01*
X122536Y166326D01*
X123170Y165500D01*
X123996Y164866D01*
X124460Y164674D01*
Y159511D01*
X124576Y158926D01*
X124908Y158430D01*
X159764Y123573D01*
X160260Y123241D01*
X160846Y123125D01*
X176013D01*
X176205Y122661D01*
X176839Y121835D01*
X177664Y121202D01*
X178626Y120803D01*
X179658Y120668D01*
X180690Y120803D01*
X181651Y121202D01*
X182477Y121835D01*
X183110Y122661D01*
X183509Y123623D01*
X183644Y124654D01*
X183509Y125686D01*
X183110Y126648D01*
X182709Y127171D01*
X182956Y127671D01*
X186359D01*
X186606Y127171D01*
X186205Y126648D01*
X185807Y125686D01*
X185671Y124654D01*
X185807Y123623D01*
X186205Y122661D01*
X186838Y121835D01*
X187664Y121202D01*
X188626Y120803D01*
X189658Y120668D01*
X190690Y120803D01*
X191651Y121202D01*
X192171Y121600D01*
X192671Y121354D01*
Y118607D01*
X185705D01*
Y110702D01*
X192671D01*
Y110034D01*
X191367Y108729D01*
X145334D01*
X125181Y128881D01*
X124685Y129213D01*
X124100Y129329D01*
X110240D01*
X110170Y129822D01*
X111132Y130221D01*
X111958Y130854D01*
X112591Y131680D01*
X112990Y132641D01*
X113126Y133673D01*
X112990Y134705D01*
X112591Y135667D01*
X111958Y136493D01*
X111132Y137126D01*
X110170Y137524D01*
X109139Y137660D01*
X108107Y137524D01*
X107145Y137126D01*
X106319Y136493D01*
X105686Y135667D01*
X105288Y134705D01*
X105161Y133744D01*
X105126Y133724D01*
X104639Y133698D01*
X104005Y134524D01*
X103179Y135158D01*
X102218Y135556D01*
X101186Y135692D01*
X100154Y135556D01*
X99192Y135158D01*
X98367Y134524D01*
X97733Y133698D01*
X97335Y132737D01*
X97199Y131705D01*
X97335Y130673D01*
X97733Y129711D01*
X98367Y128886D01*
X99192Y128252D01*
X99656Y128060D01*
Y127800D01*
X99773Y127215D01*
X100104Y126719D01*
X100601Y126387D01*
X101186Y126271D01*
X123467D01*
X138427Y111311D01*
X138193Y110837D01*
X137800Y110889D01*
X136768Y110753D01*
X135807Y110354D01*
X134981Y109721D01*
X134347Y108895D01*
X133949Y107934D01*
X133813Y106902D01*
X133949Y105870D01*
X134347Y104908D01*
X134981Y104083D01*
X135807Y103449D01*
X136768Y103051D01*
X137800Y102915D01*
X138832Y103051D01*
X139793Y103449D01*
X140619Y104083D01*
X141253Y104908D01*
X141651Y105870D01*
X141787Y106902D01*
X141735Y107295D01*
X142209Y107528D01*
X143619Y106119D01*
X144115Y105787D01*
X144700Y105671D01*
X192000D01*
X192585Y105787D01*
X193081Y106119D01*
X195281Y108319D01*
X195613Y108815D01*
X195729Y109400D01*
Y117444D01*
X196224Y117539D01*
X196259Y117438D01*
X197082Y116012D01*
X197152Y115931D01*
X197207Y115839D01*
X198309Y114616D01*
X198394Y114552D01*
X198467Y114473D01*
X199799Y113506D01*
X199896Y113461D01*
X199983Y113399D01*
X201487Y112730D01*
X201591Y112706D01*
X201690Y112664D01*
X203300Y112321D01*
X203407Y112320D01*
X203512Y112299D01*
X205158Y112299D01*
X205263Y112320D01*
X205370Y112321D01*
X206980Y112664D01*
X207079Y112706D01*
X207183Y112729D01*
X208687Y113399D01*
X208774Y113461D01*
X208871Y113505D01*
X210203Y114473D01*
X210276Y114552D01*
X210362Y114616D01*
X211463Y115839D01*
X211518Y115931D01*
X211588Y116011D01*
X212411Y117437D01*
X212446Y117538D01*
X212498Y117632D01*
X213007Y119197D01*
X213019Y119303D01*
X213051Y119406D01*
X213134Y120196D01*
X213656Y120381D01*
X214919Y119119D01*
X214989Y119071D01*
X215075Y118607D01*
X215075Y118413D01*
Y110702D01*
X222980D01*
X222981Y118607D01*
X223454Y118671D01*
X227088D01*
X227188Y118171D01*
X227034Y118107D01*
X226209Y117473D01*
X225575Y116648D01*
X225177Y115686D01*
X225041Y114654D01*
X225177Y113622D01*
X225575Y112661D01*
X226209Y111835D01*
X227034Y111202D01*
X227996Y110803D01*
X229028Y110668D01*
X230060Y110803D01*
X231021Y111202D01*
X231847Y111835D01*
X232481Y112661D01*
X232879Y113622D01*
X233015Y114654D01*
X232879Y115686D01*
X232481Y116648D01*
X231847Y117473D01*
X231021Y118107D01*
X230868Y118171D01*
X230967Y118671D01*
X248400D01*
X248985Y118787D01*
X249481Y119119D01*
X272344Y141982D01*
X303840D01*
X304032Y141518D01*
X304666Y140692D01*
X305492Y140058D01*
X306453Y139660D01*
X307485Y139524D01*
X308517Y139660D01*
X309478Y140058D01*
X310304Y140692D01*
X310938Y141518D01*
X311336Y142479D01*
X311472Y143511D01*
X311336Y144543D01*
X310938Y145504D01*
X310304Y146330D01*
X309478Y146964D01*
X308517Y147362D01*
X307485Y147498D01*
X306453Y147362D01*
X305492Y146964D01*
X304666Y146330D01*
X304032Y145504D01*
X303840Y145040D01*
X271711D01*
X271126Y144924D01*
X270630Y144592D01*
X247766Y121729D01*
X232396D01*
X232149Y122229D01*
X232481Y122661D01*
X232773Y123367D01*
X233081Y123573D01*
X238581Y129073D01*
X238913Y129569D01*
X239029Y130154D01*
Y147366D01*
X242133Y150471D01*
X271100D01*
X271685Y150587D01*
X272181Y150919D01*
X283763Y162500D01*
X284095Y162996D01*
X284211Y163582D01*
Y164669D01*
X284675Y164862D01*
X285501Y165495D01*
X286135Y166321D01*
X286533Y167282D01*
X286669Y168314D01*
X286533Y169346D01*
X286135Y170308D01*
X285501Y171133D01*
X284675Y171767D01*
X283714Y172165D01*
X282682Y172301D01*
X281650Y172165D01*
X280688Y171767D01*
X279863Y171133D01*
X279229Y170308D01*
X278831Y169346D01*
X278695Y168314D01*
X278831Y167282D01*
X279229Y166321D01*
X279863Y165495D01*
X280688Y164862D01*
X281097Y164692D01*
X281144Y164207D01*
X270466Y153529D01*
X241500D01*
X240915Y153413D01*
X240419Y153081D01*
X236419Y149081D01*
X236087Y148585D01*
X235971Y148000D01*
Y130788D01*
X232466Y127284D01*
X231967Y127316D01*
X231847Y127473D01*
X231021Y128107D01*
X230060Y128505D01*
X229028Y128641D01*
X227996Y128505D01*
X227034Y128107D01*
X226209Y127473D01*
X225575Y126648D01*
X225177Y125686D01*
X225041Y124654D01*
X225177Y123623D01*
X225575Y122661D01*
X225906Y122229D01*
X225660Y121729D01*
X222396D01*
X222149Y122229D01*
X222481Y122661D01*
X222879Y123623D01*
X223015Y124654D01*
X222879Y125686D01*
X222481Y126648D01*
X221847Y127473D01*
X221021Y128107D01*
X220060Y128505D01*
X219028Y128641D01*
X217996Y128505D01*
X217034Y128107D01*
X216529Y127720D01*
X216029Y127966D01*
Y131343D01*
X216529Y131589D01*
X217034Y131202D01*
X217996Y130803D01*
X219028Y130667D01*
X220060Y130803D01*
X221021Y131202D01*
X221847Y131835D01*
X222481Y132661D01*
X222879Y133623D01*
X223015Y134654D01*
X222879Y135686D01*
X222481Y136648D01*
X221847Y137473D01*
X221021Y138107D01*
X220060Y138505D01*
X219028Y138641D01*
X217996Y138505D01*
X217034Y138107D01*
X216209Y137473D01*
X215575Y136648D01*
X215304Y135993D01*
X214919Y135736D01*
X213729Y134547D01*
X213229Y134754D01*
X213230Y154066D01*
X213220Y154119D01*
X213225Y154172D01*
X213053Y155809D01*
X213021Y155912D01*
X213008Y156018D01*
X212500Y157584D01*
X212447Y157677D01*
X212413Y157778D01*
X211590Y159204D01*
X211519Y159284D01*
X211465Y159376D01*
X210363Y160600D01*
X210278Y160664D01*
X210205Y160742D01*
X208873Y161710D01*
X208776Y161755D01*
X208688Y161817D01*
X207185Y162486D01*
X207080Y162510D01*
X206982Y162552D01*
X205372Y162894D01*
X205265Y162896D01*
X205160Y162917D01*
X203514Y162917D01*
X203409Y162896D01*
X203302Y162894D01*
X201692Y162552D01*
X201593Y162510D01*
X201489Y162486D01*
X199985Y161817D01*
X199898Y161755D01*
X199801Y161710D01*
X198469Y160743D01*
X198396Y160664D01*
X198310Y160600D01*
X197209Y159377D01*
X197154Y159285D01*
X197083Y159204D01*
X196260Y157779D01*
X196226Y157678D01*
X196174Y157584D01*
X195665Y156019D01*
X195652Y155912D01*
X195621Y155810D01*
X195449Y154173D01*
X195453Y154119D01*
X195443Y154067D01*
X195442Y139128D01*
X194942Y138920D01*
X193081Y140781D01*
X192585Y141113D01*
X192404Y141149D01*
X192279Y141684D01*
X192477Y141835D01*
X193110Y142661D01*
X193509Y143623D01*
X193644Y144654D01*
X193509Y145686D01*
X193110Y146648D01*
X192477Y147474D01*
X191651Y148107D01*
X190690Y148505D01*
X189658Y148641D01*
X188626Y148505D01*
X187664Y148107D01*
X187229Y147774D01*
X186729Y148020D01*
Y151289D01*
X187229Y151535D01*
X187664Y151202D01*
X188626Y150803D01*
X189158Y150733D01*
Y154654D01*
Y158575D01*
X188626Y158505D01*
X187664Y158107D01*
X186838Y157474D01*
X186205Y156648D01*
X185807Y155686D01*
X185802Y155650D01*
X185328Y155489D01*
X185081Y155736D01*
X184585Y156067D01*
X184000Y156184D01*
X183302D01*
X183110Y156648D01*
X182477Y157474D01*
X181651Y158107D01*
X180690Y158505D01*
X179658Y158641D01*
X178626Y158505D01*
X177664Y158107D01*
X176839Y157474D01*
X176205Y156648D01*
X175807Y155686D01*
X175671Y154654D01*
X175807Y153622D01*
X176205Y152661D01*
X176839Y151835D01*
X177664Y151202D01*
X178626Y150803D01*
X179658Y150668D01*
X180690Y150803D01*
X181651Y151202D01*
X182477Y151835D01*
X183110Y152661D01*
X183544Y152442D01*
X183671Y152359D01*
Y146602D01*
X183171Y146502D01*
X183110Y146648D01*
X182477Y147474D01*
X181651Y148107D01*
X180690Y148505D01*
X179658Y148641D01*
X178626Y148505D01*
X177664Y148107D01*
X176839Y147474D01*
X176205Y146648D01*
X175807Y145686D01*
X175753Y145276D01*
X175459Y145155D01*
X175230Y145133D01*
X171281Y149081D01*
X170785Y149413D01*
X170200Y149529D01*
X142434D01*
X139329Y152634D01*
Y164674D01*
X139793Y164866D01*
X140619Y165500D01*
X141253Y166326D01*
X141651Y167287D01*
X141787Y168319D01*
X141651Y169351D01*
X141253Y170312D01*
X140619Y171138D01*
X139793Y171772D01*
X138832Y172170D01*
X137800Y172306D01*
D02*
G37*
G36*
X222949Y154154D02*
X219528D01*
Y150733D01*
X220060Y150803D01*
X221021Y151202D01*
X221847Y151835D01*
X222481Y152661D01*
X222879Y153622D01*
X222949Y154154D01*
D02*
G37*
G36*
X193579D02*
X190158D01*
Y150733D01*
X190690Y150803D01*
X191651Y151202D01*
X192477Y151835D01*
X193110Y152661D01*
X193509Y153622D01*
X193579Y154154D01*
D02*
G37*
G36*
X218528D02*
X215107D01*
X215177Y153622D01*
X215575Y152661D01*
X216209Y151835D01*
X217034Y151202D01*
X217996Y150803D01*
X218528Y150733D01*
Y154154D01*
D02*
G37*
G36*
X229028Y158641D02*
X227996Y158505D01*
X227034Y158107D01*
X226209Y157474D01*
X225575Y156648D01*
X225177Y155686D01*
X225041Y154654D01*
X225177Y153622D01*
X225575Y152661D01*
X226209Y151835D01*
X227034Y151202D01*
X227996Y150803D01*
X229028Y150668D01*
X230060Y150803D01*
X231021Y151202D01*
X231847Y151835D01*
X232481Y152661D01*
X232879Y153622D01*
X233015Y154654D01*
X232879Y155686D01*
X232481Y156648D01*
X231847Y157474D01*
X231021Y158107D01*
X230060Y158505D01*
X229028Y158641D01*
D02*
G37*
G36*
Y148641D02*
X227996Y148505D01*
X227034Y148107D01*
X226209Y147474D01*
X225575Y146648D01*
X225177Y145686D01*
X225041Y144654D01*
X225177Y143623D01*
X225575Y142661D01*
X226209Y141835D01*
X227034Y141202D01*
X227996Y140803D01*
X229028Y140667D01*
X230060Y140803D01*
X231021Y141202D01*
X231847Y141835D01*
X232481Y142661D01*
X232879Y143623D01*
X233015Y144654D01*
X232879Y145686D01*
X232481Y146648D01*
X231847Y147474D01*
X231021Y148107D01*
X230060Y148505D01*
X229028Y148641D01*
D02*
G37*
G36*
X219028D02*
X217996Y148505D01*
X217034Y148107D01*
X216209Y147474D01*
X215575Y146648D01*
X215177Y145686D01*
X215041Y144654D01*
X215177Y143623D01*
X215575Y142661D01*
X216209Y141835D01*
X217034Y141202D01*
X217996Y140803D01*
X219028Y140667D01*
X220060Y140803D01*
X221021Y141202D01*
X221847Y141835D01*
X222481Y142661D01*
X222879Y143623D01*
X223015Y144654D01*
X222879Y145686D01*
X222481Y146648D01*
X221847Y147474D01*
X221021Y148107D01*
X220060Y148505D01*
X219028Y148641D01*
D02*
G37*
G36*
X101186Y147503D02*
X100154Y147367D01*
X99192Y146968D01*
X98367Y146335D01*
X97733Y145509D01*
X97335Y144548D01*
X97199Y143516D01*
X97335Y142484D01*
X97733Y141522D01*
X98367Y140697D01*
X99192Y140063D01*
X100154Y139665D01*
X101186Y139529D01*
X102218Y139665D01*
X103179Y140063D01*
X104005Y140697D01*
X104639Y141522D01*
X105037Y142484D01*
X105173Y143516D01*
X105037Y144548D01*
X104639Y145509D01*
X104005Y146335D01*
X103179Y146968D01*
X102218Y147367D01*
X101186Y147503D01*
D02*
G37*
G36*
X249296Y145529D02*
X248264Y145394D01*
X247303Y144995D01*
X246477Y144362D01*
X245843Y143536D01*
X245445Y142575D01*
X245309Y141543D01*
X245445Y140511D01*
X245843Y139549D01*
X246477Y138724D01*
X247303Y138090D01*
X248264Y137692D01*
X249296Y137556D01*
X250328Y137692D01*
X251289Y138090D01*
X252115Y138724D01*
X252749Y139549D01*
X253147Y140511D01*
X253283Y141543D01*
X253147Y142575D01*
X252749Y143536D01*
X252115Y144362D01*
X251289Y144995D01*
X250328Y145394D01*
X249296Y145529D01*
D02*
G37*
G36*
X229028Y138641D02*
X227996Y138505D01*
X227034Y138107D01*
X226209Y137473D01*
X225575Y136648D01*
X225177Y135686D01*
X225041Y134654D01*
X225177Y133623D01*
X225575Y132661D01*
X226209Y131835D01*
X227034Y131202D01*
X227996Y130803D01*
X229028Y130667D01*
X230060Y130803D01*
X231021Y131202D01*
X231847Y131835D01*
X232481Y132661D01*
X232879Y133623D01*
X233015Y134654D01*
X232879Y135686D01*
X232481Y136648D01*
X231847Y137473D01*
X231021Y138107D01*
X230060Y138505D01*
X229028Y138641D01*
D02*
G37*
G36*
X299532Y137655D02*
X298500Y137519D01*
X297539Y137121D01*
X296713Y136487D01*
X296079Y135662D01*
X295681Y134700D01*
X295545Y133668D01*
X295681Y132636D01*
X296079Y131675D01*
X296713Y130849D01*
X297539Y130216D01*
X298500Y129817D01*
X299532Y129682D01*
X300564Y129817D01*
X301526Y130216D01*
X302351Y130849D01*
X302985Y131675D01*
X303472Y131649D01*
X303507Y131630D01*
X303634Y130668D01*
X304032Y129707D01*
X304666Y128881D01*
X305492Y128247D01*
X306453Y127849D01*
X307485Y127713D01*
X308517Y127849D01*
X309478Y128247D01*
X310304Y128881D01*
X310938Y129707D01*
X311336Y130668D01*
X311472Y131700D01*
X311336Y132732D01*
X310938Y133693D01*
X310304Y134519D01*
X309478Y135153D01*
X308517Y135551D01*
X307485Y135687D01*
X306453Y135551D01*
X305492Y135153D01*
X304666Y134519D01*
X304032Y133693D01*
X303545Y133720D01*
X303510Y133739D01*
X303383Y134700D01*
X302985Y135662D01*
X302351Y136487D01*
X301526Y137121D01*
X300564Y137519D01*
X299532Y137655D01*
D02*
G37*
G36*
X246068Y135687D02*
X245036Y135551D01*
X244074Y135153D01*
X243249Y134519D01*
X242615Y133693D01*
X242217Y132732D01*
X242081Y131700D01*
X242217Y130668D01*
X242615Y129707D01*
X243249Y128881D01*
X244074Y128247D01*
X245036Y127849D01*
X246068Y127713D01*
X247099Y127849D01*
X248061Y128247D01*
X248887Y128881D01*
X249520Y129707D01*
X249919Y130668D01*
X250055Y131700D01*
X249919Y132732D01*
X249520Y133693D01*
X248887Y134519D01*
X248061Y135153D01*
X247099Y135551D01*
X246068Y135687D01*
D02*
G37*
G36*
X137800Y126637D02*
X136768Y126501D01*
X135807Y126102D01*
X134981Y125469D01*
X134347Y124643D01*
X133949Y123682D01*
X133813Y122650D01*
X133949Y121618D01*
X134347Y120656D01*
X134981Y119831D01*
X135807Y119197D01*
X136768Y118799D01*
X137800Y118663D01*
X138832Y118799D01*
X139793Y119197D01*
X140619Y119831D01*
X141253Y120656D01*
X141651Y121618D01*
X141787Y122650D01*
X141651Y123682D01*
X141253Y124643D01*
X140619Y125469D01*
X139793Y126102D01*
X138832Y126501D01*
X137800Y126637D01*
D02*
G37*
G36*
X270871Y126632D02*
X269839Y126496D01*
X268877Y126098D01*
X268052Y125464D01*
X267418Y124638D01*
X267020Y123677D01*
X266884Y122645D01*
X267020Y121613D01*
X267418Y120651D01*
X268052Y119826D01*
X268877Y119192D01*
X269839Y118794D01*
X270871Y118658D01*
X271903Y118794D01*
X272864Y119192D01*
X273690Y119826D01*
X274324Y120651D01*
X274722Y121613D01*
X274858Y122645D01*
X274722Y123677D01*
X274324Y124638D01*
X273690Y125464D01*
X272864Y126098D01*
X271903Y126496D01*
X270871Y126632D01*
D02*
G37*
G36*
X179658Y118641D02*
X178626Y118505D01*
X177664Y118107D01*
X176839Y117473D01*
X176205Y116648D01*
X175807Y115686D01*
X175671Y114654D01*
X175807Y113622D01*
X176205Y112661D01*
X176839Y111835D01*
X177664Y111202D01*
X178626Y110803D01*
X179658Y110668D01*
X180690Y110803D01*
X181651Y111202D01*
X182477Y111835D01*
X183110Y112661D01*
X183509Y113622D01*
X183644Y114654D01*
X183509Y115686D01*
X183110Y116648D01*
X182477Y117473D01*
X181651Y118107D01*
X180690Y118505D01*
X179658Y118641D01*
D02*
G37*
G36*
X125989Y110889D02*
X124957Y110753D01*
X123996Y110354D01*
X123170Y109721D01*
X122536Y108895D01*
X122138Y107934D01*
X122002Y106902D01*
X122138Y105870D01*
X122536Y104908D01*
X123170Y104083D01*
X123996Y103449D01*
X124957Y103051D01*
X125989Y102915D01*
X127021Y103051D01*
X127982Y103449D01*
X128808Y104083D01*
X129442Y104908D01*
X129840Y105870D01*
X129976Y106902D01*
X129840Y107934D01*
X129442Y108895D01*
X128808Y109721D01*
X127982Y110354D01*
X127021Y110753D01*
X125989Y110889D01*
D02*
G37*
G36*
X282682Y110884D02*
X281650Y110748D01*
X280688Y110350D01*
X279863Y109716D01*
X279229Y108890D01*
X278831Y107929D01*
X278695Y106897D01*
X278831Y105865D01*
X279229Y104903D01*
X279863Y104078D01*
X280688Y103444D01*
X281650Y103046D01*
X282682Y102910D01*
X283714Y103046D01*
X284675Y103444D01*
X285501Y104078D01*
X286135Y104903D01*
X286533Y105865D01*
X286669Y106897D01*
X286533Y107929D01*
X286135Y108890D01*
X285501Y109716D01*
X284675Y110350D01*
X283714Y110748D01*
X282682Y110884D01*
D02*
G37*
G36*
X270871D02*
X269839Y110748D01*
X268877Y110350D01*
X268052Y109716D01*
X267418Y108890D01*
X267020Y107929D01*
X266884Y106897D01*
X267020Y105865D01*
X267418Y104903D01*
X268052Y104078D01*
X268877Y103444D01*
X269839Y103046D01*
X270871Y102910D01*
X271903Y103046D01*
X272864Y103444D01*
X273690Y104078D01*
X274324Y104903D01*
X274722Y105865D01*
X274858Y106897D01*
X274722Y107929D01*
X274324Y108890D01*
X273690Y109716D01*
X272864Y110350D01*
X271903Y110748D01*
X270871Y110884D01*
D02*
G37*
G36*
X129531Y96595D02*
X128177Y96462D01*
X126876Y96067D01*
X125676Y95426D01*
X124624Y94563D01*
X123761Y93511D01*
X123120Y92312D01*
X122725Y91010D01*
X122592Y89656D01*
Y89656D01*
X122725Y88303D01*
X123120Y87001D01*
X123761Y85801D01*
X124624Y84750D01*
X125676Y83887D01*
X126876Y83246D01*
X128177Y82851D01*
X129531Y82717D01*
X130885Y82851D01*
X132186Y83246D01*
X133386Y83887D01*
X134438Y84750D01*
X135301Y85801D01*
X135942Y87001D01*
X136337Y88303D01*
X136470Y89656D01*
Y89656D01*
X136337Y91010D01*
X135942Y92312D01*
X135301Y93511D01*
X134438Y94563D01*
X133386Y95426D01*
X132186Y96067D01*
X130885Y96462D01*
X129531Y96595D01*
D02*
G37*
G36*
X184649Y96593D02*
X183296Y96460D01*
X181994Y96065D01*
X180794Y95424D01*
X179743Y94561D01*
X179743Y94561D01*
X179743Y94561D01*
X178880Y93509D01*
X178238Y92310D01*
X177843Y91008D01*
X177710Y89654D01*
X177843Y88301D01*
X178238Y86999D01*
X178880Y85799D01*
X179743Y84748D01*
X180794Y83885D01*
X181994Y83244D01*
X183295Y82849D01*
X184649Y82715D01*
X186003Y82849D01*
X187304Y83244D01*
X188504Y83885D01*
X189556Y84748D01*
X189556Y84748D01*
X189556Y84748D01*
X190419Y85799D01*
X191060Y86999D01*
X191455Y88301D01*
X191588Y89654D01*
X191455Y91008D01*
X191060Y92310D01*
X190419Y93510D01*
X189556Y94561D01*
X188504Y95424D01*
X187305Y96065D01*
X186003Y96460D01*
X184649Y96593D01*
D02*
G37*
G36*
X224019Y96592D02*
X222666Y96458D01*
X221364Y96064D01*
X220164Y95422D01*
X219113Y94559D01*
X218250Y93508D01*
X217608Y92308D01*
X217214Y91007D01*
X217080Y89653D01*
X217214Y88299D01*
X217608Y86997D01*
X218250Y85798D01*
X219113Y84746D01*
X220164Y83883D01*
X221364Y83242D01*
X222666Y82847D01*
X224019Y82714D01*
X225373Y82847D01*
X226675Y83242D01*
X227874Y83883D01*
X228926Y84746D01*
X229789Y85798D01*
X230430Y86997D01*
X230825Y88299D01*
X230958Y89653D01*
X230825Y91006D01*
X230430Y92308D01*
X229789Y93508D01*
X228926Y94559D01*
X227874Y95422D01*
X226675Y96064D01*
X225373Y96458D01*
X224019Y96592D01*
D02*
G37*
G36*
X279137Y96590D02*
X277784Y96456D01*
X276482Y96061D01*
X275282Y95420D01*
X274231Y94557D01*
X273368Y93506D01*
X272727Y92306D01*
X272332Y91005D01*
X272198Y89651D01*
X272332Y88297D01*
X272727Y86995D01*
X273368Y85796D01*
X274231Y84744D01*
X275282Y83881D01*
X276482Y83240D01*
X277784Y82845D01*
X279137Y82712D01*
X280491Y82845D01*
X281793Y83240D01*
X282993Y83881D01*
X284044Y84744D01*
X284907Y85796D01*
X285548Y86995D01*
X285943Y88297D01*
X286076Y89651D01*
X285943Y91005D01*
X285548Y92306D01*
X284907Y93506D01*
X284044Y94557D01*
X282993Y95420D01*
X281793Y96061D01*
X280491Y96456D01*
X280491Y96456D01*
X279137Y96590D01*
D02*
G37*
%LPD*%
G36*
X185705Y291889D02*
X192671D01*
Y289142D01*
X192171Y288896D01*
X191651Y289295D01*
X190690Y289693D01*
X189658Y289829D01*
X188626Y289693D01*
X187664Y289295D01*
X186838Y288661D01*
X186205Y287835D01*
X185807Y286874D01*
X185671Y285842D01*
X185807Y284810D01*
X186205Y283848D01*
X186838Y283023D01*
X187246Y282710D01*
X187305Y282133D01*
X187034Y281829D01*
X181606D01*
X181507Y282329D01*
X181651Y282389D01*
X182477Y283023D01*
X183110Y283848D01*
X183509Y284810D01*
X183644Y285842D01*
X183509Y286874D01*
X183110Y287835D01*
X182477Y288661D01*
X181651Y289295D01*
X180690Y289693D01*
X179658Y289829D01*
X178626Y289693D01*
X177664Y289295D01*
X176839Y288661D01*
X176205Y287835D01*
X176013Y287371D01*
X176000D01*
X175415Y287255D01*
X174919Y286923D01*
X167064Y279069D01*
X166536Y279248D01*
X166460Y279826D01*
X166062Y280788D01*
X165428Y281614D01*
X164603Y282247D01*
X164139Y282439D01*
Y295367D01*
X168343Y299571D01*
X177203D01*
X177372Y299071D01*
X176839Y298661D01*
X176205Y297835D01*
X175807Y296874D01*
X175671Y295842D01*
X175807Y294810D01*
X176205Y293848D01*
X176839Y293023D01*
X177664Y292389D01*
X178626Y291991D01*
X179658Y291855D01*
X180690Y291991D01*
X181651Y292389D01*
X182477Y293023D01*
X183110Y293848D01*
X183509Y294810D01*
X183644Y295842D01*
X183509Y296874D01*
X183110Y297835D01*
X182477Y298661D01*
X181943Y299071D01*
X182113Y299571D01*
X185705D01*
Y291889D01*
D02*
G37*
G36*
X186539Y278271D02*
X186205Y277835D01*
X185807Y276874D01*
X185671Y275842D01*
X185807Y274810D01*
X186205Y273848D01*
X186838Y273023D01*
X187164Y272773D01*
X187040Y272238D01*
X186915Y272213D01*
X186419Y271881D01*
X183619Y269081D01*
X183287Y268585D01*
X183262Y268459D01*
X182727Y268334D01*
X182477Y268661D01*
X181651Y269295D01*
X180690Y269693D01*
X179658Y269829D01*
X178626Y269693D01*
X177664Y269295D01*
X176839Y268661D01*
X176529Y268258D01*
X176029Y268428D01*
Y273256D01*
X176529Y273426D01*
X176839Y273023D01*
X177664Y272389D01*
X178626Y271991D01*
X179658Y271855D01*
X180690Y271991D01*
X181651Y272389D01*
X182477Y273023D01*
X183110Y273848D01*
X183509Y274810D01*
X183644Y275842D01*
X183509Y276874D01*
X183110Y277835D01*
X182776Y278271D01*
X183023Y278771D01*
X186292D01*
X186539Y278271D01*
D02*
G37*
G36*
X281159Y247366D02*
Y245820D01*
X280695Y245628D01*
X279869Y244995D01*
X279235Y244169D01*
X278837Y243208D01*
X278701Y242176D01*
X278837Y241144D01*
X279235Y240182D01*
X279583Y239729D01*
X279336Y239229D01*
X274229D01*
X273982Y239729D01*
X274330Y240182D01*
X274728Y241144D01*
X274864Y242176D01*
X274728Y243208D01*
X274330Y244169D01*
X273696Y244995D01*
X272870Y245628D01*
X271909Y246027D01*
X270877Y246163D01*
X269845Y246027D01*
X268884Y245628D01*
X268529Y245357D01*
X268029Y245603D01*
Y248400D01*
X267913Y248985D01*
X267581Y249481D01*
X265554Y251509D01*
X265746Y251971D01*
X276554D01*
X281159Y247366D01*
D02*
G37*
G36*
X183671Y142707D02*
Y142000D01*
X183787Y141415D01*
X184119Y140919D01*
X186419Y138619D01*
X186915Y138287D01*
X187044Y138261D01*
X187169Y137727D01*
X186838Y137473D01*
X186205Y136648D01*
X185807Y135686D01*
X185671Y134654D01*
X185807Y133623D01*
X186205Y132661D01*
X186838Y131835D01*
X187628Y131229D01*
X187630Y131175D01*
X187330Y130729D01*
X181985D01*
X181686Y131175D01*
X181687Y131229D01*
X182477Y131835D01*
X183110Y132661D01*
X183509Y133623D01*
X183644Y134654D01*
X183509Y135686D01*
X183110Y136648D01*
X182477Y137473D01*
X181651Y138107D01*
X180690Y138505D01*
X179658Y138641D01*
X178626Y138505D01*
X177664Y138107D01*
X176839Y137473D01*
X176229Y136680D01*
X176176Y136678D01*
X175729Y136944D01*
Y142365D01*
X176176Y142631D01*
X176229Y142629D01*
X176839Y141835D01*
X177664Y141202D01*
X178626Y140803D01*
X179658Y140667D01*
X180690Y140803D01*
X181651Y141202D01*
X182477Y141835D01*
X183110Y142661D01*
X183171Y142806D01*
X183671Y142707D01*
D02*
G37*
G36*
X172671Y143367D02*
Y132000D01*
X172787Y131415D01*
X173119Y130919D01*
X175919Y128119D01*
X176415Y127787D01*
X176447Y127781D01*
X176652Y127230D01*
X176205Y126648D01*
X176013Y126184D01*
X161479D01*
X141678Y145985D01*
X141740Y146232D01*
X141899Y146471D01*
X169567D01*
X172671Y143367D01*
D02*
G37*
%LPC*%
G36*
X159375Y145534D02*
X158343Y145398D01*
X157381Y145000D01*
X156556Y144367D01*
X155922Y143541D01*
X155524Y142579D01*
X155388Y141547D01*
X155524Y140515D01*
X155922Y139554D01*
X156556Y138728D01*
X157381Y138095D01*
X158343Y137696D01*
X159375Y137560D01*
X160407Y137696D01*
X161368Y138095D01*
X162194Y138728D01*
X162828Y139554D01*
X163226Y140515D01*
X163362Y141547D01*
X163226Y142579D01*
X162828Y143541D01*
X162194Y144367D01*
X161368Y145000D01*
X160407Y145398D01*
X159375Y145534D01*
D02*
G37*
G36*
X162603Y135692D02*
X161571Y135556D01*
X160610Y135158D01*
X159784Y134524D01*
X159150Y133698D01*
X158752Y132737D01*
X158616Y131705D01*
X158752Y130673D01*
X159150Y129711D01*
X159784Y128886D01*
X160610Y128252D01*
X161571Y127854D01*
X162603Y127718D01*
X163635Y127854D01*
X164596Y128252D01*
X165422Y128886D01*
X166056Y129711D01*
X166454Y130673D01*
X166590Y131705D01*
X166454Y132737D01*
X166056Y133698D01*
X165422Y134524D01*
X164596Y135158D01*
X163635Y135556D01*
X162603Y135692D01*
D02*
G37*
%LPD*%
D12*
X229028Y282600D02*
X232000D01*
X162609Y278795D02*
Y296000D01*
X167709Y301100D01*
X188558D01*
X189658Y300000D01*
Y295842D02*
Y300000D01*
X137806Y242180D02*
Y248000D01*
X149406Y259600D01*
X170100D01*
X174500Y264000D01*
Y278000D01*
X176800Y280300D01*
X188000D01*
X189658Y281958D01*
Y285842D01*
X137800Y152000D02*
Y168319D01*
Y152000D02*
X141800Y148000D01*
X170200D01*
X174200Y144000D01*
Y132000D02*
Y144000D01*
Y132000D02*
X177000Y129200D01*
X188458D01*
X189658Y128000D01*
Y124654D02*
Y128000D01*
X216000Y134654D02*
X219028D01*
X214500Y133154D02*
X216000Y134654D01*
X214500Y121700D02*
Y133154D01*
Y121700D02*
X216000Y120200D01*
X248400D01*
X271711Y143511D01*
X307485D01*
X215658Y265842D02*
X219028D01*
X214500Y267000D02*
X215658Y265842D01*
X214500Y267000D02*
Y288000D01*
X216800Y290300D01*
X231200D01*
X240000Y299100D01*
X282688D01*
Y303593D01*
X176000Y285842D02*
X179658D01*
X163658Y273500D02*
X176000Y285842D01*
X131495Y273500D02*
X163658D01*
X125995Y268000D02*
X131495Y273500D01*
X125995Y242180D02*
Y268000D01*
X229028Y282600D02*
Y285842D01*
X232000Y282600D02*
X244000Y270600D01*
Y257500D02*
Y270600D01*
Y257500D02*
X248000Y253500D01*
X277188D01*
X282688Y248000D01*
Y242176D02*
Y248000D01*
X160846Y124654D02*
X179658D01*
X125989Y159511D02*
X160846Y124654D01*
X125989Y159511D02*
Y168319D01*
X282682Y163582D02*
Y168314D01*
X271100Y152000D02*
X282682Y163582D01*
X241500Y152000D02*
X271100D01*
X237500Y148000D02*
X241500Y152000D01*
X237500Y130154D02*
Y148000D01*
X232000Y124654D02*
X237500Y130154D01*
X229028Y124654D02*
X232000D01*
X101192Y278795D02*
Y282700D01*
X146100D01*
X166900Y303500D01*
X192000D01*
X194200Y301300D01*
Y273000D02*
Y301300D01*
X192000Y270800D02*
X194200Y273000D01*
X187500Y270800D02*
X192000D01*
X184700Y268000D02*
X187500Y270800D01*
X184700Y263800D02*
Y268000D01*
X180000Y259100D02*
X184700Y263800D01*
X179658Y255842D02*
X180000Y259100D01*
X307491Y274000D02*
Y278790D01*
X290600Y257109D02*
X307491Y274000D01*
X290600Y240000D02*
Y257109D01*
X288300Y237700D02*
X290600Y240000D01*
X268700Y237700D02*
X288300D01*
X266400Y240000D02*
X268700Y237700D01*
X266400Y240000D02*
Y244061D01*
X266500Y244161D01*
Y248400D01*
X264000Y250900D02*
X266500Y248400D01*
X230128Y250900D02*
X264000D01*
X229028Y252000D02*
X230128Y250900D01*
X229028Y252000D02*
Y255842D01*
X101186Y127800D02*
Y131705D01*
Y127800D02*
X124100D01*
X144700Y107200D01*
X192000D01*
X194200Y109400D01*
Y137500D01*
X192000Y139700D02*
X194200Y137500D01*
X187500Y139700D02*
X192000D01*
X185200Y142000D02*
X187500Y139700D01*
X185200Y142000D02*
Y153454D01*
X184000Y154654D02*
X185200Y153454D01*
X179658Y154654D02*
X184000D01*
D18*
X137806Y287850D02*
D03*
X270877Y287845D02*
D03*
X137800Y122650D02*
D03*
X270871Y122645D02*
D03*
X137806Y287850D02*
D03*
X270877Y287845D02*
D03*
X137800Y122650D02*
D03*
X270871Y122645D02*
D03*
D19*
X184654Y224933D02*
D03*
X129536Y224935D02*
D03*
X184658Y320842D02*
D03*
X129540Y320844D02*
D03*
X224028Y320840D02*
D03*
X224024Y224932D02*
D03*
X279142Y224930D02*
D03*
X279146Y320838D02*
D03*
X279141Y185559D02*
D03*
X129534Y185565D02*
D03*
X184649Y89654D02*
D03*
X279137Y89651D02*
D03*
X224019Y89653D02*
D03*
X129531Y89656D02*
D03*
X184653Y185563D02*
D03*
X224023Y185562D02*
D03*
X184654Y224933D02*
D03*
X129536Y224935D02*
D03*
X184658Y320842D02*
D03*
X129540Y320844D02*
D03*
X279146Y320838D02*
D03*
X279142Y224930D02*
D03*
X224024Y224932D02*
D03*
X224028Y320840D02*
D03*
X279141Y185560D02*
D03*
X129535Y185565D02*
D03*
X184649Y89654D02*
D03*
X279137Y89651D02*
D03*
X224019Y89653D02*
D03*
X129531Y89656D02*
D03*
X184653Y185563D02*
D03*
X224023Y185562D02*
D03*
D20*
X229028Y265842D02*
D03*
X219028D02*
D03*
X229028Y275842D02*
D03*
X219028D02*
D03*
X229028Y285842D02*
D03*
X219028D02*
D03*
X229028Y295842D02*
D03*
X219028Y255842D02*
D03*
X229028D02*
D03*
X179658D02*
D03*
X189658D02*
D03*
X179658Y295842D02*
D03*
X189658Y285842D02*
D03*
X179658D02*
D03*
X189658Y275842D02*
D03*
X179658D02*
D03*
X189658Y265842D02*
D03*
X179658D02*
D03*
X229028Y154654D02*
D03*
X219028D02*
D03*
X229028Y114654D02*
D03*
X219028Y124654D02*
D03*
X229028D02*
D03*
X219028Y134654D02*
D03*
X229028D02*
D03*
X219028Y144654D02*
D03*
X229028D02*
D03*
X270871Y122645D02*
D03*
Y106897D02*
D03*
X282682D02*
D03*
X307485Y131700D02*
D03*
X299532Y133668D02*
D03*
X307485Y143511D02*
D03*
X282682Y168314D02*
D03*
X270871D02*
D03*
X262013Y164613D02*
D03*
X249296Y141543D02*
D03*
X246068Y131700D02*
D03*
X137806Y287850D02*
D03*
Y303598D02*
D03*
X125995D02*
D03*
X101192Y278795D02*
D03*
X109145Y276826D02*
D03*
X101192Y266984D02*
D03*
X125995Y242180D02*
D03*
X137806D02*
D03*
X146664Y245881D02*
D03*
X159381Y268952D02*
D03*
X162609Y278795D02*
D03*
X270877Y287845D02*
D03*
Y303593D02*
D03*
X282688D02*
D03*
X307491Y278790D02*
D03*
X299538Y276821D02*
D03*
X307491Y266979D02*
D03*
X282688Y242176D02*
D03*
X270877D02*
D03*
X262019Y245876D02*
D03*
X249302Y268947D02*
D03*
X246074Y278790D02*
D03*
X137800Y122650D02*
D03*
Y106902D02*
D03*
X125989D02*
D03*
X101186Y131705D02*
D03*
X109139Y133673D02*
D03*
X101186Y143516D02*
D03*
X125989Y168319D02*
D03*
X137800D02*
D03*
X146658Y164618D02*
D03*
X159375Y141547D02*
D03*
X162603Y131705D02*
D03*
X179658Y154654D02*
D03*
X189658D02*
D03*
X179658Y114654D02*
D03*
X189658Y124654D02*
D03*
X179658D02*
D03*
X189658Y134654D02*
D03*
X179658D02*
D03*
X189658Y144654D02*
D03*
X179658D02*
D03*
D21*
X219028Y295842D02*
D03*
X189658D02*
D03*
X219028Y114654D02*
D03*
X189658D02*
D03*
M02*
