G04*
G04 #@! TF.GenerationSoftware,Altium Limited,Altium Designer,18.1.11 (251)*
G04*
G04 Layer_Color=16711935*
%FSLAX25Y25*%
%MOIN*%
G70*
G01*
G75*
%ADD12C,0.01000*%
D12*
X203514Y161897D02*
X205160Y161897D01*
X206770Y161555D01*
X208274Y160885D01*
X209606Y159917D01*
X210707Y158694D01*
X211530Y157269D01*
X212038Y155703D01*
X212210Y154066D01*
X212209Y121149D02*
X212210Y154066D01*
X212037Y119512D02*
X212209Y121149D01*
X211528Y117947D02*
X212037Y119512D01*
X210705Y116521D02*
X211528Y117947D01*
X209604Y115298D02*
X210705Y116521D01*
X208272Y114330D02*
X209604Y115298D01*
X206768Y113661D02*
X208272Y114330D01*
X205158Y113319D02*
X206768Y113661D01*
X203512Y113319D02*
X205158Y113319D01*
X201902Y113661D02*
X203512Y113319D01*
X200398Y114331D02*
X201902Y113661D01*
X199066Y115298D02*
X200398Y114331D01*
X197965Y116522D02*
X199066Y115298D01*
X197142Y117947D02*
X197965Y116522D01*
X196633Y119513D02*
X197142Y117947D01*
X196461Y121150D02*
X196633Y119513D01*
X196461Y121150D02*
X196463Y154067D01*
X196635Y155704D01*
X197143Y157269D01*
X197967Y158695D01*
X199068Y159918D01*
X200400Y160885D01*
X201904Y161555D01*
X203514Y161897D01*
X203516Y232763D02*
X205163Y232763D01*
X206773Y232421D01*
X208276Y231751D01*
X209608Y230784D01*
X210710Y229560D01*
X211532Y228135D01*
X212041Y226569D01*
X212213Y224932D01*
X212440Y222628D01*
X213112Y220412D01*
X214203Y218370D01*
X215672Y216580D01*
X217462Y215111D01*
X219504Y214020D01*
X221720Y213348D01*
X224024Y213121D01*
X235835Y213120D01*
X237472Y212948D01*
X239037Y212439D01*
X240463Y211616D01*
X241686Y210515D01*
X242654Y209183D01*
X243323Y207679D01*
X243665Y206069D01*
X243665Y204423D02*
X243665Y206069D01*
X243323Y202813D02*
X243665Y204423D01*
X242653Y201309D02*
X243323Y202813D01*
X241686Y199977D02*
X242653Y201309D01*
X240462Y198876D02*
X241686Y199977D01*
X239037Y198053D02*
X240462Y198876D01*
X237471Y197544D02*
X239037Y198053D01*
X235834Y197372D02*
X237471Y197544D01*
X224023Y197373D02*
X235834Y197372D01*
X221719Y197146D02*
X224023Y197373D01*
X219503Y196474D02*
X221719Y197146D01*
X217461Y195382D02*
X219503Y196474D01*
X215671Y193913D02*
X217461Y195382D01*
X214202Y192124D02*
X215671Y193913D01*
X213111Y190082D02*
X214202Y192124D01*
X212439Y187866D02*
X213111Y190082D01*
X212212Y185562D02*
X212439Y187866D01*
X212040Y183925D02*
X212212Y185562D01*
X211531Y182359D02*
X212040Y183925D01*
X210708Y180934D02*
X211531Y182359D01*
X209606Y179710D02*
X210708Y180934D01*
X208274Y178743D02*
X209606Y179710D01*
X206771Y178074D02*
X208274Y178743D01*
X205160Y177731D02*
X206771Y178074D01*
X203514Y177731D02*
X205160Y177731D01*
X201904Y178074D02*
X203514Y177731D01*
X200400Y178743D02*
X201904Y178074D01*
X199069Y179711D02*
X200400Y178743D01*
X197967Y180934D02*
X199069Y179711D01*
X197144Y182360D02*
X197967Y180934D01*
X196636Y183925D02*
X197144Y182360D01*
X196464Y185563D02*
X196636Y183925D01*
X196237Y187867D02*
X196464Y185563D01*
X195565Y190083D02*
X196237Y187867D01*
X194473Y192124D02*
X195565Y190083D01*
X193005Y193914D02*
X194473Y192124D01*
X191215Y195383D02*
X193005Y193914D01*
X189173Y196475D02*
X191215Y195383D01*
X186957Y197147D02*
X189173Y196475D01*
X184653Y197374D02*
X186957Y197147D01*
X172842Y197374D02*
X184653Y197374D01*
X171205Y197547D02*
X172842Y197374D01*
X169639Y198055D02*
X171205Y197547D01*
X168214Y198878D02*
X169639Y198055D01*
X166991Y199980D02*
X168214Y198878D01*
X166023Y201312D02*
X166991Y199980D01*
X165354Y202816D02*
X166023Y201312D01*
X165011Y204426D02*
X165354Y202816D01*
X165011Y204426D02*
X165012Y206072D01*
X165354Y207682D01*
X166023Y209186D01*
X166991Y210517D01*
X168214Y211619D01*
X169640Y212442D01*
X171205Y212950D01*
X172843Y213123D01*
X184654Y213122D01*
X186958Y213349D01*
X189174Y214021D01*
X191216Y215112D01*
X193005Y216581D01*
X194474Y218371D01*
X195566Y220413D01*
X196238Y222628D01*
X196465Y224933D01*
X196637Y226570D01*
X197146Y228135D01*
X197969Y229561D01*
X199071Y230784D01*
X200402Y231752D01*
X201906Y232421D01*
X203516Y232763D01*
X203519Y297176D02*
X205165Y297176D01*
X206775Y296833D01*
X208279Y296164D01*
X209611Y295196D01*
X210712Y293973D01*
X211535Y292547D01*
X212043Y290982D01*
X212215Y289345D01*
X212214Y256428D02*
X212215Y289345D01*
X212042Y254791D02*
X212214Y256428D01*
X211533Y253225D02*
X212042Y254791D01*
X210710Y251800D02*
X211533Y253225D01*
X209609Y250577D02*
X210710Y251800D01*
X208277Y249609D02*
X209609Y250577D01*
X206773Y248940D02*
X208277Y249609D01*
X205163Y248598D02*
X206773Y248940D01*
X203517Y248598D02*
X205163Y248598D01*
X201907Y248940D02*
X203517Y248598D01*
X200403Y249609D02*
X201907Y248940D01*
X199071Y250577D02*
X200403Y249609D01*
X197970Y251800D02*
X199071Y250577D01*
X197147Y253226D02*
X197970Y251800D01*
X196638Y254792D02*
X197147Y253226D01*
X196466Y256429D02*
X196638Y254792D01*
X196466Y256429D02*
X196467Y289345D01*
X196640Y290982D01*
X197148Y292548D01*
X197971Y293973D01*
X199073Y295197D01*
X200405Y296164D01*
X201909Y296834D01*
X203519Y297176D01*
X129540Y332655D02*
X184658Y332653D01*
X127236Y332428D02*
X129540Y332655D01*
X125020Y331756D02*
X127236Y332428D01*
X122978Y330664D02*
X125020Y331756D01*
X121188Y329196D02*
X122978Y330664D01*
X119719Y327406D02*
X121188Y329196D01*
X118628Y325364D02*
X119719Y327406D01*
X117956Y323148D02*
X118628Y325364D01*
X117728Y320844D02*
X117956Y323148D01*
X117512Y316994D02*
X117728Y320844D01*
X116866Y313192D02*
X117512Y316994D01*
X115798Y309486D02*
X116866Y313192D01*
X114322Y305923D02*
X115798Y309486D01*
X112457Y302548D02*
X114322Y305923D01*
X110225Y299403D02*
X112457Y302548D01*
X107655Y296527D02*
X110225Y299403D01*
X99533Y288406D02*
X107655Y296527D01*
X98064Y286616D02*
X99533Y288406D01*
X96973Y284574D02*
X98064Y286616D01*
X96301Y282359D02*
X96973Y284574D01*
X96073Y280054D02*
X96301Y282359D01*
X96073Y265727D02*
X96073Y280054D01*
X96073Y265727D02*
X96300Y263423D01*
X96972Y261207D01*
X98063Y259165D01*
X99532Y257375D01*
X107653Y249253D01*
X110223Y246377D01*
X112454Y243232D01*
X114320Y239857D01*
X115796Y236294D01*
X116863Y232588D01*
X117509Y228786D01*
X117725Y224936D01*
X117952Y222631D01*
X118624Y220416D01*
X119715Y218374D01*
X121184Y216584D01*
X122974Y215115D01*
X125016Y214023D01*
X127231Y213351D01*
X129535Y213124D01*
X141347Y213124D01*
X142984Y212951D01*
X144549Y212443D01*
X145975Y211620D01*
X147198Y210518D01*
X148166Y209186D01*
X148835Y207682D01*
X149177Y206072D01*
X149177Y204426D02*
X149177Y206072D01*
X148835Y202816D02*
X149177Y204426D01*
X148165Y201312D02*
X148835Y202816D01*
X147198Y199981D02*
X148165Y201312D01*
X145974Y198879D02*
X147198Y199981D01*
X144549Y198056D02*
X145974Y198879D01*
X142983Y197548D02*
X144549Y198056D01*
X141346Y197376D02*
X142983Y197548D01*
X129535Y197376D02*
X141346Y197376D01*
X127231Y197149D02*
X129535Y197376D01*
X125015Y196477D02*
X127231Y197149D01*
X122973Y195386D02*
X125015Y196477D01*
X121183Y193917D02*
X122973Y195386D01*
X119714Y192127D02*
X121183Y193917D01*
X118623Y190085D02*
X119714Y192127D01*
X117950Y187870D02*
X118623Y190085D01*
X117724Y185565D02*
X117950Y187870D01*
X117507Y181715D02*
X117724Y185565D01*
X116861Y177913D02*
X117507Y181715D01*
X115793Y174207D02*
X116861Y177913D01*
X114317Y170644D02*
X115793Y174207D01*
X112452Y167269D02*
X114317Y170644D01*
X110220Y164124D02*
X112452Y167269D01*
X107650Y161249D02*
X110220Y164124D01*
X99528Y153127D02*
X107650Y161249D01*
X98059Y151337D02*
X99528Y153127D01*
X96968Y149295D02*
X98059Y151337D01*
X96295Y147080D02*
X96968Y149295D01*
X96068Y144776D02*
X96295Y147080D01*
X96068Y130448D02*
X96068Y144776D01*
X96068Y130448D02*
X96295Y128144D01*
X96967Y125928D01*
X98058Y123886D01*
X99527Y122096D01*
X107648Y113974D01*
X110218Y111099D01*
X112450Y107954D01*
X114315Y104578D01*
X115790Y101015D01*
X116858Y97309D01*
X117504Y93507D01*
X117720Y89657D01*
X117947Y87353D01*
X118619Y85137D01*
X119710Y83095D01*
X121179Y81305D01*
X122969Y79836D01*
X125011Y78745D01*
X127226Y78072D01*
X129531Y77845D01*
X184649Y77843D01*
X186953Y78070D01*
X189169Y78742D01*
X191211Y79834D01*
X193000Y81302D01*
X194469Y83092D01*
X195561Y85134D01*
X196233Y87350D01*
X196460Y89654D01*
X196632Y91291D01*
X197141Y92857D01*
X197964Y94282D01*
X199066Y95505D01*
X200397Y96473D01*
X201901Y97142D01*
X203511Y97484D01*
X205157Y97484D01*
X206768Y97142D01*
X208271Y96473D01*
X209603Y95505D01*
X210704Y94282D01*
X211527Y92856D01*
X212036Y91290D01*
X212208Y89653D01*
X212435Y87349D01*
X213107Y85133D01*
X214198Y83091D01*
X215667Y81301D01*
X217457Y79833D01*
X219499Y78741D01*
X221714Y78069D01*
X224019Y77842D01*
X279137Y77840D01*
X281441Y78067D01*
X283657Y78739D01*
X285699Y79830D01*
X287489Y81299D01*
X288958Y83089D01*
X290049Y85131D01*
X290721Y87346D01*
X290948Y89650D01*
X291165Y93501D01*
X291811Y97303D01*
X292879Y101009D01*
X294355Y104571D01*
X296220Y107947D01*
X298452Y111092D01*
X301022Y113967D01*
X309144Y122089D01*
X310613Y123878D01*
X311704Y125920D01*
X312376Y128136D01*
X312603Y130440D01*
X312604Y144768D01*
X312377Y147072D02*
X312604Y144768D01*
X311705Y149288D02*
X312377Y147072D01*
X310614Y151330D02*
X311705Y149288D01*
X309145Y153120D02*
X310614Y151330D01*
X301024Y161241D02*
X309145Y153120D01*
X298454Y164117D02*
X301024Y161241D01*
X296222Y167262D02*
X298454Y164117D01*
X294357Y170638D02*
X296222Y167262D01*
X292881Y174201D02*
X294357Y170638D01*
X291814Y177907D02*
X292881Y174201D01*
X291168Y181709D02*
X291814Y177907D01*
X290952Y185559D02*
X291168Y181709D01*
X290725Y187863D02*
X290952Y185559D01*
X290053Y190079D02*
X290725Y187863D01*
X288962Y192121D02*
X290053Y190079D01*
X287493Y193911D02*
X288962Y192121D01*
X285703Y195380D02*
X287493Y193911D01*
X283661Y196471D02*
X285703Y195380D01*
X281446Y197143D02*
X283661Y196471D01*
X279141Y197371D02*
X281446Y197143D01*
X267330Y197371D02*
X279141Y197371D01*
X265693Y197543D02*
X267330Y197371D01*
X264128Y198052D02*
X265693Y197543D01*
X262702Y198875D02*
X264128Y198052D01*
X261479Y199977D02*
X262702Y198875D01*
X260511Y201308D02*
X261479Y199977D01*
X259842Y202812D02*
X260511Y201308D01*
X259500Y204422D02*
X259842Y202812D01*
X259500Y204422D02*
X259500Y206068D01*
X259842Y207679D01*
X260512Y209182D01*
X261479Y210514D01*
X262702Y211615D01*
X264128Y212438D01*
X265694Y212947D01*
X267331Y213119D01*
X279142Y213119D01*
X281446Y213345D01*
X283662Y214018D01*
X285704Y215109D01*
X287494Y216578D01*
X288963Y218367D01*
X290054Y220409D01*
X290726Y222625D01*
X290953Y224929D01*
X291170Y228780D01*
X291816Y232582D01*
X292884Y236287D01*
X294359Y239850D01*
X296225Y243226D01*
X298457Y246371D01*
X301027Y249246D01*
X309149Y257367D01*
X310618Y259157D01*
X311709Y261199D01*
X312381Y263415D01*
X312608Y265719D01*
X312609Y280047D01*
X312382Y282351D02*
X312609Y280047D01*
X311710Y284566D02*
X312382Y282351D01*
X310619Y286608D02*
X311710Y284566D01*
X309150Y288398D02*
X310619Y286608D01*
X301028Y296520D02*
X309150Y288398D01*
X298459Y299396D02*
X301028Y296520D01*
X296227Y302541D02*
X298459Y299396D01*
X294362Y305917D02*
X296227Y302541D01*
X292886Y309479D02*
X294362Y305917D01*
X291819Y313185D02*
X292886Y309479D01*
X291173Y316987D02*
X291819Y313185D01*
X290957Y320838D02*
X291173Y316987D01*
X290730Y323142D02*
X290957Y320838D01*
X290058Y325358D02*
X290730Y323142D01*
X288966Y327400D02*
X290058Y325358D01*
X287498Y329190D02*
X288966Y327400D01*
X285708Y330659D02*
X287498Y329190D01*
X283666Y331750D02*
X285708Y330659D01*
X281450Y332422D02*
X283666Y331750D01*
X279146Y332649D02*
X281450Y332422D01*
X224028Y332651D02*
X279146Y332649D01*
X221724Y332424D02*
X224028Y332651D01*
X219508Y331752D02*
X221724Y332424D01*
X217466Y330661D02*
X219508Y331752D01*
X215676Y329192D02*
X217466Y330661D01*
X214207Y327402D02*
X215676Y329192D01*
X213116Y325361D02*
X214207Y327402D01*
X212444Y323145D02*
X213116Y325361D01*
X212217Y320841D02*
X212444Y323145D01*
X212045Y319204D02*
X212217Y320841D01*
X211536Y317638D02*
X212045Y319204D01*
X210713Y316213D02*
X211536Y317638D01*
X209611Y314989D02*
X210713Y316213D01*
X208279Y314022D02*
X209611Y314989D01*
X206776Y313352D02*
X208279Y314022D01*
X205165Y313010D02*
X206776Y313352D01*
X203519Y313010D02*
X205165Y313010D01*
X201909Y313352D02*
X203519Y313010D01*
X200405Y314022D02*
X201909Y313352D01*
X199074Y314990D02*
X200405Y314022D01*
X197972Y316213D02*
X199074Y314990D01*
X197149Y317639D02*
X197972Y316213D01*
X196641Y319204D02*
X197149Y317639D01*
X196469Y320841D02*
X196641Y319204D01*
X196242Y323146D02*
X196469Y320841D01*
X195570Y325361D02*
X196242Y323146D01*
X194478Y327403D02*
X195570Y325361D01*
X193010Y329193D02*
X194478Y327403D01*
X191220Y330662D02*
X193010Y329193D01*
X189178Y331753D02*
X191220Y330662D01*
X186962Y332426D02*
X189178Y331753D01*
X184658Y332653D02*
X186962Y332426D01*
X279141Y197371D02*
X281446Y197143D01*
X283661Y196471D01*
X285703Y195380D01*
X287493Y193911D01*
X288962Y192121D01*
X290053Y190079D01*
X290725Y187863D01*
X290952Y185559D01*
X291168Y181709D01*
X291814Y177907D01*
X292881Y174201D01*
X294357Y170638D01*
X296222Y167262D01*
X298454Y164117D01*
X301024Y161241D01*
X309145Y153120D01*
X310614Y151330D01*
X311705Y149288D01*
X312377Y147072D01*
X312604Y144768D01*
X312603Y130440D02*
X312604Y144768D01*
X312376Y128136D02*
X312603Y130440D01*
X311704Y125920D02*
X312376Y128136D01*
X310613Y123878D02*
X311704Y125920D01*
X309144Y122089D02*
X310613Y123878D01*
X301022Y113967D02*
X309144Y122089D01*
X298452Y111092D02*
X301022Y113967D01*
X296220Y107947D02*
X298452Y111092D01*
X294355Y104571D02*
X296220Y107947D01*
X292879Y101009D02*
X294355Y104571D01*
X291811Y97303D02*
X292879Y101009D01*
X291165Y93501D02*
X291811Y97303D01*
X290948Y89650D02*
X291165Y93501D01*
X290721Y87346D02*
X290948Y89650D01*
X290049Y85131D02*
X290721Y87346D01*
X288958Y83089D02*
X290049Y85131D01*
X287489Y81299D02*
X288958Y83089D01*
X285699Y79830D02*
X287489Y81299D01*
X283657Y78739D02*
X285699Y79830D01*
X281441Y78067D02*
X283657Y78739D01*
X279137Y77840D02*
X281441Y78067D01*
X224019Y77842D02*
X279137Y77840D01*
X221715Y78069D02*
X224019Y77842D01*
X219499Y78741D02*
X221715Y78069D01*
X217457Y79833D02*
X219499Y78741D01*
X215667Y81301D02*
X217457Y79833D01*
X214198Y83091D02*
X215667Y81301D01*
X213107Y85133D02*
X214198Y83091D01*
X212435Y87349D02*
X213107Y85133D01*
X212208Y89653D02*
X212435Y87349D01*
X212036Y91290D02*
X212208Y89653D01*
X211527Y92856D02*
X212036Y91290D01*
X210704Y94282D02*
X211527Y92856D01*
X209603Y95505D02*
X210704Y94282D01*
X208271Y96473D02*
X209603Y95505D01*
X206768Y97142D02*
X208271Y96473D01*
X205157Y97484D02*
X206768Y97142D01*
X203511Y97484D02*
X205157Y97484D01*
X201901Y97142D02*
X203511Y97484D01*
X200397Y96473D02*
X201901Y97142D01*
X199066Y95505D02*
X200397Y96473D01*
X197964Y94282D02*
X199066Y95505D01*
X197141Y92857D02*
X197964Y94282D01*
X196632Y91291D02*
X197141Y92857D01*
X196460Y89654D02*
X196632Y91291D01*
X196233Y87350D02*
X196460Y89654D01*
X195561Y85134D02*
X196233Y87350D01*
X194469Y83092D02*
X195561Y85134D01*
X193000Y81302D02*
X194469Y83092D01*
X191211Y79834D02*
X193000Y81302D01*
X189169Y78742D02*
X191211Y79834D01*
X186953Y78070D02*
X189169Y78742D01*
X184649Y77843D02*
X186953Y78070D01*
X129531Y77845D02*
X184649Y77843D01*
X127226Y78072D02*
X129531Y77845D01*
X125011Y78745D02*
X127226Y78072D01*
X122969Y79836D02*
X125011Y78745D01*
X121179Y81305D02*
X122969Y79836D01*
X119710Y83095D02*
X121179Y81305D01*
X118619Y85137D02*
X119710Y83095D01*
X117947Y87353D02*
X118619Y85137D01*
X117720Y89657D02*
X117947Y87353D01*
X117504Y93507D02*
X117720Y89657D01*
X116858Y97309D02*
X117504Y93507D01*
X115791Y101015D02*
X116858Y97309D01*
X114315Y104578D02*
X115791Y101015D01*
X112450Y107954D02*
X114315Y104578D01*
X110218Y111099D02*
X112450Y107954D01*
X107648Y113974D02*
X110218Y111099D01*
X99527Y122096D02*
X107648Y113974D01*
X98058Y123886D02*
X99527Y122096D01*
X96967Y125928D02*
X98058Y123886D01*
X96295Y128144D02*
X96967Y125928D01*
X96068Y130448D02*
X96295Y128144D01*
X96068Y130448D02*
X96069Y144776D01*
X96295Y147080D01*
X96968Y149295D01*
X98059Y151337D01*
X99528Y153127D01*
X107650Y161249D01*
X110220Y164124D01*
X112452Y167269D01*
X114317Y170644D01*
X115793Y174207D01*
X116861Y177913D01*
X117507Y181715D01*
X117724Y185565D01*
X117950Y187870D01*
X118623Y190085D01*
X119714Y192127D01*
X121183Y193917D01*
X122973Y195386D01*
X125015Y196477D01*
X127231Y197149D01*
X129535Y197376D01*
X127231Y213351D02*
X129536Y213124D01*
X125016Y214023D02*
X127231Y213351D01*
X122974Y215115D02*
X125016Y214023D01*
X121184Y216584D02*
X122974Y215115D01*
X119715Y218374D02*
X121184Y216584D01*
X118624Y220416D02*
X119715Y218374D01*
X117952Y222631D02*
X118624Y220416D01*
X117725Y224936D02*
X117952Y222631D01*
X117509Y228786D02*
X117725Y224936D01*
X116863Y232588D02*
X117509Y228786D01*
X115796Y236294D02*
X116863Y232588D01*
X114320Y239857D02*
X115796Y236294D01*
X112454Y243232D02*
X114320Y239857D01*
X110223Y246378D02*
X112454Y243232D01*
X107653Y249253D02*
X110223Y246378D01*
X99532Y257375D02*
X107653Y249253D01*
X98063Y259165D02*
X99532Y257375D01*
X96972Y261207D02*
X98063Y259165D01*
X96300Y263423D02*
X96972Y261207D01*
X96073Y265727D02*
X96300Y263423D01*
X96073Y265727D02*
X96074Y280054D01*
X96301Y282359D01*
X96973Y284574D01*
X98064Y286616D01*
X99533Y288406D01*
X107655Y296527D01*
X110225Y299403D01*
X112457Y302548D01*
X114322Y305923D01*
X115798Y309486D01*
X116866Y313192D01*
X117512Y316994D01*
X117728Y320844D01*
X117956Y323148D01*
X118628Y325364D01*
X119719Y327406D01*
X121188Y329196D01*
X122978Y330665D01*
X125020Y331756D01*
X127236Y332428D01*
X129540Y332655D01*
X184658Y332653D01*
X186962Y332426D01*
X189178Y331754D01*
X191220Y330662D01*
X193010Y329193D01*
X194478Y327403D01*
X195570Y325361D01*
X196242Y323146D01*
X196469Y320841D01*
X196641Y319204D01*
X197149Y317639D01*
X212045Y319204D02*
X212217Y320841D01*
X212444Y323145D01*
X213116Y325361D01*
X214207Y327402D01*
X215676Y329192D01*
X217466Y330661D01*
X219508Y331752D01*
X221724Y332424D01*
X224028Y332651D01*
X279146Y332649D01*
X281451Y332422D01*
X283666Y331750D01*
X285708Y330659D01*
X287498Y329190D01*
X288967Y327400D01*
X290058Y325358D01*
X290730Y323142D01*
X290957Y320838D01*
X291173Y316987D01*
X291819Y313185D01*
X292886Y309479D01*
X294362Y305917D01*
X296227Y302541D01*
X298459Y299396D01*
X301028Y296520D01*
X309150Y288398D01*
X310619Y286608D01*
X311710Y284566D01*
X312382Y282351D01*
X312609Y280047D01*
X312608Y265719D02*
X312609Y280047D01*
X312381Y263415D02*
X312608Y265719D01*
X311709Y261199D02*
X312381Y263415D01*
X310618Y259157D02*
X311709Y261199D01*
X309149Y257367D02*
X310618Y259157D01*
X301027Y249246D02*
X309149Y257367D01*
X298457Y246371D02*
X301027Y249246D01*
X296225Y243226D02*
X298457Y246371D01*
X294359Y239850D02*
X296225Y243226D01*
X292884Y236287D02*
X294359Y239850D01*
X291816Y232582D02*
X292884Y236287D01*
X291170Y228780D02*
X291816Y232582D01*
X290953Y224929D02*
X291170Y228780D01*
X290726Y222625D02*
X290953Y224929D01*
X290054Y220409D02*
X290726Y222625D01*
X288963Y218367D02*
X290054Y220409D01*
X287494Y216578D02*
X288963Y218367D01*
X285704Y215109D02*
X287494Y216578D01*
X283662Y214018D02*
X285704Y215109D01*
X281446Y213345D02*
X283662Y214018D01*
X279142Y213119D02*
X281446Y213345D01*
M02*
