G04*
G04 #@! TF.GenerationSoftware,Altium Limited,Altium Designer,18.1.11 (251)*
G04*
G04 Layer_Color=65535*
%FSLAX25Y25*%
%MOIN*%
G70*
G01*
G75*
%ADD10C,0.00787*%
%ADD11C,0.00394*%
%ADD12C,0.01000*%
%ADD13C,0.00600*%
D10*
X234028Y249858D02*
Y301826D01*
X214028Y249858D02*
X234028D01*
X214028D02*
Y301826D01*
X234028D01*
X174658Y108670D02*
X194658D01*
Y160639D01*
X174658D02*
X194658D01*
X174658Y108670D02*
Y160639D01*
D11*
X274814Y239420D02*
X278751D01*
X274814Y306349D02*
X278751D01*
X253160Y239420D02*
X266940D01*
X243318Y249262D02*
X253160Y239420D01*
X243318Y249262D02*
Y274853D01*
Y282727D02*
Y296506D01*
X253160Y306349D01*
X266940D01*
X286625Y239420D02*
X300404D01*
X310247Y249262D01*
Y263042D01*
Y282727D02*
Y296506D01*
X300404Y306349D02*
X310247Y296506D01*
X286625Y306349D02*
X300404D01*
X129926Y171075D02*
X133863D01*
X129926Y104146D02*
X133863D01*
X141737Y171075D02*
X155516D01*
X165359Y161232D01*
Y135642D02*
Y161232D01*
Y113988D02*
Y127768D01*
X155516Y104146D02*
X165359Y113988D01*
X141737Y104146D02*
X155516D01*
X108272Y171075D02*
X122052D01*
X98430Y161232D02*
X108272Y171075D01*
X98430Y147453D02*
Y161232D01*
Y113988D02*
Y127768D01*
Y113988D02*
X108272Y104146D01*
X122052D01*
D12*
X155030Y320829D02*
X151031D01*
Y322829D01*
X151698Y323495D01*
X153031D01*
X153697Y322829D01*
Y320829D01*
Y318830D02*
Y317497D01*
X153031Y316830D01*
X151031D01*
Y318830D01*
X151698Y319496D01*
X152364Y318830D01*
Y316830D01*
X153697Y315498D02*
X151698D01*
X151031Y314831D01*
Y312832D01*
X153697D01*
X149698Y310166D02*
Y309500D01*
X150365Y308833D01*
X153697D01*
Y310832D01*
X153031Y311499D01*
X151698D01*
X151031Y310832D01*
Y308833D01*
X155030Y307500D02*
X151031D01*
X153031D01*
X153697Y306834D01*
Y305501D01*
X153031Y304834D01*
X151031D01*
X154364Y302835D02*
X153697D01*
Y303501D01*
Y302168D01*
Y302835D01*
X151698D01*
X151031Y302168D01*
Y298170D02*
Y299503D01*
X151698Y300169D01*
X153031D01*
X153697Y299503D01*
Y298170D01*
X153031Y297503D01*
X152364D01*
Y300169D01*
X153697Y296170D02*
X151031D01*
X152364D01*
X153031Y295504D01*
X153697Y294838D01*
Y294171D01*
X155030Y292172D02*
X151031D01*
Y290172D01*
X151698Y289506D01*
X152364D01*
X153031D01*
X153697Y290172D01*
Y292172D01*
X151031Y287507D02*
Y286174D01*
X151698Y285507D01*
X153031D01*
X153697Y286174D01*
Y287507D01*
X153031Y288173D01*
X151698D01*
X151031Y287507D01*
X153697Y283508D02*
Y282175D01*
X153031Y281508D01*
X151031D01*
Y283508D01*
X151698Y284174D01*
X152364Y283508D01*
Y281508D01*
X153697Y280176D02*
X151031D01*
X152364D01*
X153031Y279509D01*
X153697Y278843D01*
Y278176D01*
X155030Y273511D02*
X151031D01*
Y275510D01*
X151698Y276177D01*
X153031D01*
X153697Y275510D01*
Y273511D01*
X155030Y269512D02*
Y272178D01*
X153031D01*
Y270845D01*
Y272178D01*
X151031D01*
X153697Y268179D02*
X151698D01*
X151031Y267513D01*
Y265514D01*
X153697D01*
X151031Y264181D02*
X153697D01*
Y262181D01*
X153031Y261515D01*
X151031D01*
Y260182D02*
X155030D01*
X152364D02*
X153697Y258183D01*
X152364Y260182D02*
X151031Y258183D01*
X153697Y256183D02*
X151698D01*
X151031Y255517D01*
Y253518D01*
X150365D01*
X149698Y254184D01*
Y254851D01*
X151031Y253518D02*
X153697D01*
X154364Y249519D02*
X155030Y250185D01*
Y251518D01*
X154364Y252185D01*
X153697D01*
X153031Y251518D01*
Y250185D01*
X152364Y249519D01*
X151698D01*
X151031Y250185D01*
Y251518D01*
X151698Y252185D01*
X153697Y248186D02*
X151698D01*
X151031Y247519D01*
X151698Y246853D01*
X151031Y246187D01*
X151698Y245520D01*
X153697D01*
X151031Y244187D02*
Y242854D01*
Y243521D01*
X153697D01*
Y244187D01*
X154364Y240189D02*
X153697D01*
Y240855D01*
Y239522D01*
Y240189D01*
X151698D01*
X151031Y239522D01*
X153697Y234857D02*
Y236856D01*
X153031Y237523D01*
X151698D01*
X151031Y236856D01*
Y234857D01*
X155030Y233524D02*
X151031D01*
X153031D01*
X153697Y232857D01*
Y231525D01*
X153031Y230858D01*
X151031D01*
X145166Y311499D02*
X142500Y310166D01*
X145166Y308833D01*
X142500Y307500D02*
Y306167D01*
Y306834D01*
X146499D01*
X145832Y307500D01*
X142500Y304168D02*
X143166D01*
Y303501D01*
X142500D01*
Y304168D01*
X145832Y300836D02*
X146499Y300169D01*
Y298836D01*
X145832Y298170D01*
X143166D01*
X142500Y298836D01*
Y300169D01*
X143166Y300836D01*
X145832D01*
X146499Y290172D02*
Y292838D01*
X142500D01*
Y290172D01*
X144499Y292838D02*
Y291505D01*
X145166Y288840D02*
X142500D01*
X143833D01*
X144499Y288173D01*
X145166Y287507D01*
Y286840D01*
X142500Y284841D02*
Y283508D01*
Y284174D01*
X145166D01*
Y284841D01*
Y278843D02*
Y280842D01*
X144499Y281508D01*
X143166D01*
X142500Y280842D01*
Y278843D01*
X145832Y270845D02*
X146499Y271512D01*
Y272845D01*
X145832Y273511D01*
X143166D01*
X142500Y272845D01*
Y271512D01*
X143166Y270845D01*
X144499D01*
Y272178D01*
X142500Y268846D02*
Y267513D01*
X143166Y266847D01*
X144499D01*
X145166Y267513D01*
Y268846D01*
X144499Y269512D01*
X143166D01*
X142500Y268846D01*
X145166Y265514D02*
X142500D01*
X143833D01*
X144499Y264847D01*
X145166Y264181D01*
Y263514D01*
X142500Y261515D02*
X146499D01*
X143833D02*
X145166Y259516D01*
X143833Y261515D02*
X142500Y259516D01*
Y256850D02*
Y255517D01*
X143166Y254851D01*
X144499D01*
X145166Y255517D01*
Y256850D01*
X144499Y257516D01*
X143166D01*
X142500Y256850D01*
X145166Y253518D02*
X143166D01*
X142500Y252851D01*
X143166Y252185D01*
X142500Y251518D01*
X143166Y250852D01*
X145166D01*
X253470Y89666D02*
X257469D01*
Y87666D01*
X256802Y87000D01*
X255469D01*
X254803Y87666D01*
Y89666D01*
Y91665D02*
Y92998D01*
X255469Y93664D01*
X257469D01*
Y91665D01*
X256802Y90999D01*
X256136Y91665D01*
Y93664D01*
X254803Y94997D02*
X256802D01*
X257469Y95664D01*
Y97663D01*
X254803D01*
X258802Y100329D02*
Y100996D01*
X258135Y101662D01*
X254803D01*
Y99663D01*
X255469Y98996D01*
X256802D01*
X257469Y99663D01*
Y101662D01*
X253470Y102995D02*
X257469D01*
X255469D01*
X254803Y103661D01*
Y104994D01*
X255469Y105661D01*
X257469D01*
X254136Y107660D02*
X254803D01*
Y106994D01*
Y108326D01*
Y107660D01*
X256802D01*
X257469Y108326D01*
Y112325D02*
Y110992D01*
X256802Y110326D01*
X255469D01*
X254803Y110992D01*
Y112325D01*
X255469Y112992D01*
X256136D01*
Y110326D01*
X254803Y114324D02*
X257469D01*
X256136D01*
X255469Y114991D01*
X254803Y115657D01*
Y116324D01*
X253470Y118323D02*
X257469D01*
Y120323D01*
X256802Y120989D01*
X256136D01*
X255469D01*
X254803Y120323D01*
Y118323D01*
X257469Y122988D02*
Y124321D01*
X256802Y124988D01*
X255469D01*
X254803Y124321D01*
Y122988D01*
X255469Y122322D01*
X256802D01*
X257469Y122988D01*
X254803Y126987D02*
Y128320D01*
X255469Y128986D01*
X257469D01*
Y126987D01*
X256802Y126321D01*
X256136Y126987D01*
Y128986D01*
X254803Y130319D02*
X257469D01*
X256136D01*
X255469Y130986D01*
X254803Y131652D01*
Y132319D01*
X253470Y136984D02*
X257469D01*
Y134985D01*
X256802Y134318D01*
X255469D01*
X254803Y134985D01*
Y136984D01*
X253470Y140983D02*
Y138317D01*
X255469D01*
Y139650D01*
Y138317D01*
X257469D01*
X254803Y142315D02*
X256802D01*
X257469Y142982D01*
Y144981D01*
X254803D01*
X257469Y146314D02*
X254803D01*
Y148314D01*
X255469Y148980D01*
X257469D01*
Y150313D02*
X253470D01*
X256136D02*
X254803Y152312D01*
X256136Y150313D02*
X257469Y152312D01*
X254803Y154312D02*
X256802D01*
X257469Y154978D01*
Y156977D01*
X258135D01*
X258802Y156311D01*
Y155645D01*
X257469Y156977D02*
X254803D01*
X254136Y160976D02*
X253470Y160310D01*
Y158977D01*
X254136Y158310D01*
X254803D01*
X255469Y158977D01*
Y160310D01*
X256136Y160976D01*
X256802D01*
X257469Y160310D01*
Y158977D01*
X256802Y158310D01*
X254803Y162309D02*
X256802D01*
X257469Y162976D01*
X256802Y163642D01*
X257469Y164308D01*
X256802Y164975D01*
X254803D01*
X257469Y166308D02*
Y167641D01*
Y166974D01*
X254803D01*
Y166308D01*
X254136Y170307D02*
X254803D01*
Y169640D01*
Y170973D01*
Y170307D01*
X256802D01*
X257469Y170973D01*
X254803Y175638D02*
Y173639D01*
X255469Y172972D01*
X256802D01*
X257469Y173639D01*
Y175638D01*
X253470Y176971D02*
X257469D01*
X255469D01*
X254803Y177637D01*
Y178970D01*
X255469Y179637D01*
X257469D01*
X263334Y98996D02*
X266000Y100329D01*
X263334Y101662D01*
X266000Y102995D02*
Y104328D01*
Y103661D01*
X262001D01*
X262668Y102995D01*
X266000Y106327D02*
X265334D01*
Y106994D01*
X266000D01*
Y106327D01*
X262668Y109659D02*
X262001Y110326D01*
Y111659D01*
X262668Y112325D01*
X265334D01*
X266000Y111659D01*
Y110326D01*
X265334Y109659D01*
X262668D01*
X262001Y120323D02*
Y117657D01*
X266000D01*
Y120323D01*
X264001Y117657D02*
Y118990D01*
X263334Y121655D02*
X266000D01*
X264667D01*
X264001Y122322D01*
X263334Y122988D01*
Y123655D01*
X266000Y125654D02*
Y126987D01*
Y126321D01*
X263334D01*
Y125654D01*
Y131652D02*
Y129653D01*
X264001Y128987D01*
X265334D01*
X266000Y129653D01*
Y131652D01*
X262668Y139650D02*
X262001Y138983D01*
Y137650D01*
X262668Y136984D01*
X265334D01*
X266000Y137650D01*
Y138983D01*
X265334Y139650D01*
X264001D01*
Y138317D01*
X266000Y141649D02*
Y142982D01*
X265334Y143648D01*
X264001D01*
X263334Y142982D01*
Y141649D01*
X264001Y140983D01*
X265334D01*
X266000Y141649D01*
X263334Y144981D02*
X266000D01*
X264667D01*
X264001Y145648D01*
X263334Y146314D01*
Y146981D01*
X266000Y148980D02*
X262001D01*
X264667D02*
X263334Y150979D01*
X264667Y148980D02*
X266000Y150979D01*
Y153645D02*
Y154978D01*
X265334Y155645D01*
X264001D01*
X263334Y154978D01*
Y153645D01*
X264001Y152979D01*
X265334D01*
X266000Y153645D01*
X263334Y156977D02*
X265334D01*
X266000Y157644D01*
X265334Y158310D01*
X266000Y158977D01*
X265334Y159643D01*
X263334D01*
D13*
X227177Y303530D02*
Y306196D01*
X229843Y303530D01*
X230510D01*
X231176Y304197D01*
Y305530D01*
X230510Y306196D01*
X216941Y305409D02*
Y304076D01*
Y304742D01*
X220940D01*
X220273Y305409D01*
X227177Y248243D02*
Y246911D01*
Y247577D01*
X231176D01*
X230510Y248243D01*
Y244911D02*
X231176Y244245D01*
Y242912D01*
X230510Y242245D01*
X227844D01*
X227177Y242912D01*
Y244245D01*
X227844Y244911D01*
X230510D01*
X217607Y248243D02*
X216941Y247577D01*
Y246244D01*
X217607Y245578D01*
X220273D01*
X220940Y246244D01*
Y247577D01*
X220273Y248243D01*
X219607D01*
X218940Y247577D01*
Y245578D01*
X191078Y162253D02*
X191744Y162919D01*
Y164252D01*
X191078Y164918D01*
X188412D01*
X187745Y164252D01*
Y162919D01*
X188412Y162253D01*
X189078D01*
X189745Y162919D01*
Y164918D01*
X181508Y162253D02*
Y163586D01*
Y162919D01*
X177509D01*
X178176Y162253D01*
Y165585D02*
X177509Y166251D01*
Y167584D01*
X178176Y168251D01*
X180842D01*
X181508Y167584D01*
Y166251D01*
X180842Y165585D01*
X178176D01*
X191744Y105087D02*
Y106420D01*
Y105754D01*
X187745D01*
X188412Y105087D01*
X181508Y106966D02*
Y104300D01*
X178842Y106966D01*
X178176D01*
X177509Y106299D01*
Y104966D01*
X178176Y104300D01*
M02*
